ISO-10303-21;
HEADER;
/* Generated by software containing ST-Developer
 * from STEP Tools, Inc. (www.steptools.com) 
 */

FILE_DESCRIPTION(
/* description */ (''),
/* implementation_level */ '2;1');

FILE_NAME(
/* name */ 'BWB_Spaceplane_V2_mesh_ready.stp',
/* time_stamp */ '2026-08-22T15:40:31+05:30',
/* author */ (''),
/* organization */ (''),
/* preprocessor_version */ 'ST-DEVELOPER v20.1',
/* originating_system */ 'Autodesk Translation Framework v15.8.0.0',
/* authorisation */ '');

FILE_SCHEMA (('AUTOMOTIVE_DESIGN { 1 0 10303 214 3 1 1 }'));
ENDSEC;

DATA;
#10=MECHANICAL_DESIGN_GEOMETRIC_PRESENTATION_REPRESENTATION('',(#17),#473);
#11=ITEM_DEFINED_TRANSFORMATION($,$,#281,#308);
#12=(
REPRESENTATION_RELATIONSHIP($,$,#483,#482)
REPRESENTATION_RELATIONSHIP_WITH_TRANSFORMATION(#11)
SHAPE_REPRESENTATION_RELATIONSHIP()
);
#13=CONTEXT_DEPENDENT_SHAPE_REPRESENTATION(#12,#481);
#14=NEXT_ASSEMBLY_USAGE_OCCURRENCE('Spaceplane:1','Spaceplane:1',
'Spaceplane:1',#485,#486,'Spaceplane:1');
#15=SHAPE_REPRESENTATION_RELATIONSHIP('SRR','None',#483,#16);
#16=ADVANCED_BREP_SHAPE_REPRESENTATION('',(#18),#472);
#17=STYLED_ITEM('',(#496),#18);
#18=MANIFOLD_SOLID_BREP('Body2',#267);
#19=PLANE('',#285);
#20=PLANE('',#286);
#21=PLANE('',#292);
#22=PLANE('',#293);
#23=PLANE('',#294);
#24=PLANE('',#297);
#25=PLANE('',#301);
#26=PLANE('',#306);
#27=FACE_OUTER_BOUND('',#41,.T.);
#28=FACE_OUTER_BOUND('',#42,.T.);
#29=FACE_OUTER_BOUND('',#43,.T.);
#30=FACE_OUTER_BOUND('',#44,.T.);
#31=FACE_OUTER_BOUND('',#45,.T.);
#32=FACE_OUTER_BOUND('',#46,.T.);
#33=FACE_OUTER_BOUND('',#47,.T.);
#34=FACE_OUTER_BOUND('',#48,.T.);
#35=FACE_OUTER_BOUND('',#49,.T.);
#36=FACE_OUTER_BOUND('',#50,.T.);
#37=FACE_OUTER_BOUND('',#51,.T.);
#38=FACE_OUTER_BOUND('',#52,.T.);
#39=FACE_OUTER_BOUND('',#53,.T.);
#40=FACE_OUTER_BOUND('',#54,.T.);
#41=EDGE_LOOP('',(#175,#176,#177,#178));
#42=EDGE_LOOP('',(#179,#180,#181,#182));
#43=EDGE_LOOP('',(#183,#184,#185,#186,#187,#188,#189,#190,#191,#192));
#44=EDGE_LOOP('',(#193,#194,#195,#196));
#45=EDGE_LOOP('',(#197,#198,#199,#200));
#46=EDGE_LOOP('',(#201,#202,#203,#204));
#47=EDGE_LOOP('',(#205,#206,#207,#208,#209,#210,#211,#212,#213,#214));
#48=EDGE_LOOP('',(#215,#216,#217,#218,#219,#220));
#49=EDGE_LOOP('',(#221,#222,#223,#224));
#50=EDGE_LOOP('',(#225,#226,#227,#228));
#51=EDGE_LOOP('',(#229,#230,#231,#232));
#52=EDGE_LOOP('',(#233,#234,#235,#236));
#53=EDGE_LOOP('',(#237,#238,#239,#240,#241,#242));
#54=EDGE_LOOP('',(#243,#244,#245,#246));
#55=CIRCLE('',#284,1.00100000000045);
#56=CIRCLE('',#291,1.00100000000045);
#57=CIRCLE('',#295,3.00000000005096);
#58=CIRCLE('',#296,3.00000000005096);
#59=LINE('',#398,#83);
#60=LINE('',#401,#84);
#61=LINE('',#404,#85);
#62=LINE('',#406,#86);
#63=LINE('',#407,#87);
#64=LINE('',#410,#88);
#65=LINE('',#414,#89);
#66=LINE('',#416,#90);
#67=LINE('',#418,#91);
#68=LINE('',#422,#92);
#69=LINE('',#427,#93);
#70=LINE('',#430,#94);
#71=LINE('',#431,#95);
#72=LINE('',#434,#96);
#73=LINE('',#435,#97);
#74=LINE('',#440,#98);
#75=LINE('',#442,#99);
#76=LINE('',#444,#100);
#77=LINE('',#449,#101);
#78=LINE('',#452,#102);
#79=LINE('',#456,#103);
#80=LINE('',#458,#104);
#81=LINE('',#459,#105);
#82=LINE('',#465,#106);
#83=VECTOR('',#317,0.01);
#84=VECTOR('',#320,0.01);
#85=VECTOR('',#323,0.01);
#86=VECTOR('',#324,0.01);
#87=VECTOR('',#325,0.01);
#88=VECTOR('',#328,0.01);
#89=VECTOR('',#331,0.01);
#90=VECTOR('',#332,0.01);
#91=VECTOR('',#333,0.01);
#92=VECTOR('',#336,0.01);
#93=VECTOR('',#343,0.01);
#94=VECTOR('',#346,0.01);
#95=VECTOR('',#347,0.01);
#96=VECTOR('',#350,0.01);
#97=VECTOR('',#351,0.01);
#98=VECTOR('',#356,0.01);
#99=VECTOR('',#357,0.01);
#100=VECTOR('',#358,0.01);
#101=VECTOR('',#365,0.01);
#102=VECTOR('',#368,0.01);
#103=VECTOR('',#373,0.01);
#104=VECTOR('',#374,0.01);
#105=VECTOR('',#375,0.01);
#106=VECTOR('',#386,0.01);
#107=ELLIPSE('',#283,1.00375150241553,1.00100000000045);
#108=ELLIPSE('',#287,3.00824626103538,3.00000000005096);
#109=ELLIPSE('',#288,3.00824626103538,3.00000000005096);
#110=ELLIPSE('',#289,1.00375150241553,1.00100000000045);
#111=ELLIPSE('',#298,0.0210314489974916,0.02);
#112=ELLIPSE('',#299,8.41257959899665,8.);
#113=ELLIPSE('',#303,8.41257959899665,8.);
#114=ELLIPSE('',#305,0.0210314489974916,0.02);
#115=VERTEX_POINT('',#394);
#116=VERTEX_POINT('',#395);
#117=VERTEX_POINT('',#397);
#118=VERTEX_POINT('',#399);
#119=VERTEX_POINT('',#403);
#120=VERTEX_POINT('',#405);
#121=VERTEX_POINT('',#409);
#122=VERTEX_POINT('',#411);
#123=VERTEX_POINT('',#413);
#124=VERTEX_POINT('',#415);
#125=VERTEX_POINT('',#417);
#126=VERTEX_POINT('',#419);
#127=VERTEX_POINT('',#421);
#128=VERTEX_POINT('',#425);
#129=VERTEX_POINT('',#429);
#130=VERTEX_POINT('',#433);
#131=VERTEX_POINT('',#437);
#132=VERTEX_POINT('',#439);
#133=VERTEX_POINT('',#441);
#134=VERTEX_POINT('',#443);
#135=VERTEX_POINT('',#447);
#136=VERTEX_POINT('',#450);
#137=VERTEX_POINT('',#455);
#138=VERTEX_POINT('',#457);
#139=EDGE_CURVE('',#115,#116,#107,.T.);
#140=EDGE_CURVE('',#116,#117,#59,.T.);
#141=EDGE_CURVE('',#117,#118,#55,.T.);
#142=EDGE_CURVE('',#118,#115,#60,.T.);
#143=EDGE_CURVE('',#119,#116,#61,.F.);
#144=EDGE_CURVE('',#120,#119,#62,.T.);
#145=EDGE_CURVE('',#117,#120,#63,.T.);
#146=EDGE_CURVE('',#115,#121,#64,.F.);
#147=EDGE_CURVE('',#121,#122,#108,.T.);
#148=EDGE_CURVE('',#122,#123,#65,.T.);
#149=EDGE_CURVE('',#124,#123,#66,.T.);
#150=EDGE_CURVE('',#125,#124,#67,.T.);
#151=EDGE_CURVE('',#126,#125,#109,.T.);
#152=EDGE_CURVE('',#127,#126,#68,.F.);
#153=EDGE_CURVE('',#119,#127,#110,.T.);
#154=EDGE_CURVE('',#128,#120,#56,.T.);
#155=EDGE_CURVE('',#127,#128,#69,.T.);
#156=EDGE_CURVE('',#129,#126,#70,.F.);
#157=EDGE_CURVE('',#129,#128,#71,.T.);
#158=EDGE_CURVE('',#130,#118,#72,.T.);
#159=EDGE_CURVE('',#130,#121,#73,.F.);
#160=EDGE_CURVE('',#129,#131,#57,.T.);
#161=EDGE_CURVE('',#132,#131,#74,.F.);
#162=EDGE_CURVE('',#133,#132,#75,.T.);
#163=EDGE_CURVE('',#133,#134,#76,.F.);
#164=EDGE_CURVE('',#130,#134,#58,.T.);
#165=EDGE_CURVE('',#135,#132,#111,.T.);
#166=EDGE_CURVE('',#131,#125,#77,.T.);
#167=EDGE_CURVE('',#124,#136,#112,.T.);
#168=EDGE_CURVE('',#136,#135,#78,.T.);
#169=EDGE_CURVE('',#136,#137,#79,.T.);
#170=EDGE_CURVE('',#137,#138,#80,.T.);
#171=EDGE_CURVE('',#138,#135,#81,.T.);
#172=EDGE_CURVE('',#123,#137,#113,.T.);
#173=EDGE_CURVE('',#138,#133,#114,.T.);
#174=EDGE_CURVE('',#134,#122,#82,.T.);
#175=ORIENTED_EDGE('',*,*,#139,.T.);
#176=ORIENTED_EDGE('',*,*,#140,.T.);
#177=ORIENTED_EDGE('',*,*,#141,.T.);
#178=ORIENTED_EDGE('',*,*,#142,.T.);
#179=ORIENTED_EDGE('',*,*,#140,.F.);
#180=ORIENTED_EDGE('',*,*,#143,.F.);
#181=ORIENTED_EDGE('',*,*,#144,.F.);
#182=ORIENTED_EDGE('',*,*,#145,.F.);
#183=ORIENTED_EDGE('',*,*,#139,.F.);
#184=ORIENTED_EDGE('',*,*,#146,.T.);
#185=ORIENTED_EDGE('',*,*,#147,.T.);
#186=ORIENTED_EDGE('',*,*,#148,.T.);
#187=ORIENTED_EDGE('',*,*,#149,.F.);
#188=ORIENTED_EDGE('',*,*,#150,.F.);
#189=ORIENTED_EDGE('',*,*,#151,.F.);
#190=ORIENTED_EDGE('',*,*,#152,.F.);
#191=ORIENTED_EDGE('',*,*,#153,.F.);
#192=ORIENTED_EDGE('',*,*,#143,.T.);
#193=ORIENTED_EDGE('',*,*,#154,.T.);
#194=ORIENTED_EDGE('',*,*,#144,.T.);
#195=ORIENTED_EDGE('',*,*,#153,.T.);
#196=ORIENTED_EDGE('',*,*,#155,.T.);
#197=ORIENTED_EDGE('',*,*,#155,.F.);
#198=ORIENTED_EDGE('',*,*,#152,.T.);
#199=ORIENTED_EDGE('',*,*,#156,.F.);
#200=ORIENTED_EDGE('',*,*,#157,.T.);
#201=ORIENTED_EDGE('',*,*,#142,.F.);
#202=ORIENTED_EDGE('',*,*,#158,.F.);
#203=ORIENTED_EDGE('',*,*,#159,.T.);
#204=ORIENTED_EDGE('',*,*,#146,.F.);
#205=ORIENTED_EDGE('',*,*,#141,.F.);
#206=ORIENTED_EDGE('',*,*,#145,.T.);
#207=ORIENTED_EDGE('',*,*,#154,.F.);
#208=ORIENTED_EDGE('',*,*,#157,.F.);
#209=ORIENTED_EDGE('',*,*,#160,.T.);
#210=ORIENTED_EDGE('',*,*,#161,.F.);
#211=ORIENTED_EDGE('',*,*,#162,.F.);
#212=ORIENTED_EDGE('',*,*,#163,.T.);
#213=ORIENTED_EDGE('',*,*,#164,.F.);
#214=ORIENTED_EDGE('',*,*,#158,.T.);
#215=ORIENTED_EDGE('',*,*,#165,.T.);
#216=ORIENTED_EDGE('',*,*,#161,.T.);
#217=ORIENTED_EDGE('',*,*,#166,.T.);
#218=ORIENTED_EDGE('',*,*,#150,.T.);
#219=ORIENTED_EDGE('',*,*,#167,.T.);
#220=ORIENTED_EDGE('',*,*,#168,.T.);
#221=ORIENTED_EDGE('',*,*,#151,.T.);
#222=ORIENTED_EDGE('',*,*,#166,.F.);
#223=ORIENTED_EDGE('',*,*,#160,.F.);
#224=ORIENTED_EDGE('',*,*,#156,.T.);
#225=ORIENTED_EDGE('',*,*,#169,.T.);
#226=ORIENTED_EDGE('',*,*,#170,.T.);
#227=ORIENTED_EDGE('',*,*,#171,.T.);
#228=ORIENTED_EDGE('',*,*,#168,.F.);
#229=ORIENTED_EDGE('',*,*,#149,.T.);
#230=ORIENTED_EDGE('',*,*,#172,.T.);
#231=ORIENTED_EDGE('',*,*,#169,.F.);
#232=ORIENTED_EDGE('',*,*,#167,.F.);
#233=ORIENTED_EDGE('',*,*,#171,.F.);
#234=ORIENTED_EDGE('',*,*,#173,.T.);
#235=ORIENTED_EDGE('',*,*,#162,.T.);
#236=ORIENTED_EDGE('',*,*,#165,.F.);
#237=ORIENTED_EDGE('',*,*,#173,.F.);
#238=ORIENTED_EDGE('',*,*,#170,.F.);
#239=ORIENTED_EDGE('',*,*,#172,.F.);
#240=ORIENTED_EDGE('',*,*,#148,.F.);
#241=ORIENTED_EDGE('',*,*,#174,.F.);
#242=ORIENTED_EDGE('',*,*,#163,.F.);
#243=ORIENTED_EDGE('',*,*,#147,.F.);
#244=ORIENTED_EDGE('',*,*,#159,.F.);
#245=ORIENTED_EDGE('',*,*,#164,.T.);
#246=ORIENTED_EDGE('',*,*,#174,.T.);
#247=CYLINDRICAL_SURFACE('',#282,1.00100000000045);
#248=CYLINDRICAL_SURFACE('',#290,1.00100000000045);
#249=CYLINDRICAL_SURFACE('',#300,3.00000000005096);
#250=CYLINDRICAL_SURFACE('',#302,8.);
#251=CYLINDRICAL_SURFACE('',#304,0.02);
#252=CYLINDRICAL_SURFACE('',#307,3.00000000005096);
#253=ADVANCED_FACE('',(#27),#247,.T.);
#254=ADVANCED_FACE('',(#28),#19,.T.);
#255=ADVANCED_FACE('',(#29),#20,.T.);
#256=ADVANCED_FACE('',(#30),#248,.T.);
#257=ADVANCED_FACE('',(#31),#21,.F.);
#258=ADVANCED_FACE('',(#32),#22,.T.);
#259=ADVANCED_FACE('',(#33),#23,.F.);
#260=ADVANCED_FACE('',(#34),#24,.F.);
#261=ADVANCED_FACE('',(#35),#249,.T.);
#262=ADVANCED_FACE('',(#36),#25,.T.);
#263=ADVANCED_FACE('',(#37),#250,.T.);
#264=ADVANCED_FACE('',(#38),#251,.T.);
#265=ADVANCED_FACE('',(#39),#26,.T.);
#266=ADVANCED_FACE('',(#40),#252,.T.);
#267=CLOSED_SHELL('',(#253,#254,#255,#256,#257,#258,#259,#260,#261,#262,
#263,#264,#265,#266));
#268=DERIVED_UNIT_ELEMENT(#270,1.);
#269=DERIVED_UNIT_ELEMENT(#474,-3.);
#270=(
MASS_UNIT()
NAMED_UNIT(*)
SI_UNIT(.KILO.,.GRAM.)
);
#271=DERIVED_UNIT((#268,#269));
#272=MEASURE_REPRESENTATION_ITEM('density measure',
POSITIVE_RATIO_MEASURE(7850.),#271);
#273=PROPERTY_DEFINITION_REPRESENTATION(#278,#275);
#274=PROPERTY_DEFINITION_REPRESENTATION(#279,#276);
#275=REPRESENTATION('material name',(#277),#472);
#276=REPRESENTATION('density',(#272),#472);
#277=DESCRIPTIVE_REPRESENTATION_ITEM('Steel','Steel');
#278=PROPERTY_DEFINITION('material property','material name',#486);
#279=PROPERTY_DEFINITION('material property','density of part',#486);
#280=AXIS2_PLACEMENT_3D('',#391,#309,#310);
#281=AXIS2_PLACEMENT_3D('',#392,#311,#312);
#282=AXIS2_PLACEMENT_3D('',#393,#313,#314);
#283=AXIS2_PLACEMENT_3D('',#396,#315,#316);
#284=AXIS2_PLACEMENT_3D('',#400,#318,#319);
#285=AXIS2_PLACEMENT_3D('',#402,#321,#322);
#286=AXIS2_PLACEMENT_3D('',#408,#326,#327);
#287=AXIS2_PLACEMENT_3D('',#412,#329,#330);
#288=AXIS2_PLACEMENT_3D('',#420,#334,#335);
#289=AXIS2_PLACEMENT_3D('',#423,#337,#338);
#290=AXIS2_PLACEMENT_3D('',#424,#339,#340);
#291=AXIS2_PLACEMENT_3D('',#426,#341,#342);
#292=AXIS2_PLACEMENT_3D('',#428,#344,#345);
#293=AXIS2_PLACEMENT_3D('',#432,#348,#349);
#294=AXIS2_PLACEMENT_3D('',#436,#352,#353);
#295=AXIS2_PLACEMENT_3D('',#438,#354,#355);
#296=AXIS2_PLACEMENT_3D('',#445,#359,#360);
#297=AXIS2_PLACEMENT_3D('',#446,#361,#362);
#298=AXIS2_PLACEMENT_3D('',#448,#363,#364);
#299=AXIS2_PLACEMENT_3D('',#451,#366,#367);
#300=AXIS2_PLACEMENT_3D('',#453,#369,#370);
#301=AXIS2_PLACEMENT_3D('',#454,#371,#372);
#302=AXIS2_PLACEMENT_3D('',#460,#376,#377);
#303=AXIS2_PLACEMENT_3D('',#461,#378,#379);
#304=AXIS2_PLACEMENT_3D('',#462,#380,#381);
#305=AXIS2_PLACEMENT_3D('',#463,#382,#383);
#306=AXIS2_PLACEMENT_3D('',#464,#384,#385);
#307=AXIS2_PLACEMENT_3D('',#466,#387,#388);
#308=AXIS2_PLACEMENT_3D('',#467,#389,#390);
#309=DIRECTION('axis',(0.,0.,1.));
#310=DIRECTION('refdir',(1.,0.,0.));
#311=DIRECTION('axis',(0.,0.,1.));
#312=DIRECTION('refdir',(1.,0.,0.));
#313=DIRECTION('center_axis',(0.,0.,1.));
#314=DIRECTION('ref_axis',(0.529919264233213,0.848048096156421,0.));
#315=DIRECTION('center_axis',(-0.0739927237822856,0.,-0.997258781273586));
#316=DIRECTION('ref_axis',(0.997258781273586,4.31811128322704E-15,-0.0739927237822856));
#317=DIRECTION('',(0.,0.,-1.));
#318=DIRECTION('center_axis',(0.,0.,1.));
#319=DIRECTION('ref_axis',(0.529919264233213,0.848048096156421,0.));
#320=DIRECTION('',(0.,0.,1.));
#321=DIRECTION('center_axis',(1.,1.56812446185978E-15,0.));
#322=DIRECTION('ref_axis',(-1.56812446185978E-15,1.,0.));
#323=DIRECTION('',(1.56812446185978E-15,-1.,-1.16348737500667E-16));
#324=DIRECTION('',(0.,0.,1.));
#325=DIRECTION('',(1.56812446185978E-15,-1.,0.));
#326=DIRECTION('center_axis',(0.0739927237822856,0.,0.997258781273586));
#327=DIRECTION('ref_axis',(0.997258781273586,0.,-0.0739927237822856));
#328=DIRECTION('',(0.896802147508752,0.437399632835867,-0.0665392321772611));
#329=DIRECTION('center_axis',(0.0739927237822856,0.,0.997258781273586));
#330=DIRECTION('ref_axis',(-0.997258781273586,0.,0.0739927237822856));
#331=DIRECTION('',(-0.948598538736103,-0.308556544116349,0.0703823229987929));
#332=DIRECTION('',(0.,1.,0.));
#333=DIRECTION('',(-0.948598538736103,0.308556544116349,0.0703823229987929));
#334=DIRECTION('center_axis',(-0.0739927237822856,0.,-0.997258781273586));
#335=DIRECTION('ref_axis',(-0.997258781273586,0.,0.0739927237822856));
#336=DIRECTION('',(0.896802147508752,-0.437399632835867,-0.0665392321772611));
#337=DIRECTION('center_axis',(-0.0739927237822856,0.,-0.997258781273586));
#338=DIRECTION('ref_axis',(0.997258781273586,-2.47760483463847E-15,-0.0739927237822856));
#339=DIRECTION('center_axis',(0.,0.,-1.));
#340=DIRECTION('ref_axis',(0.529919264233215,-0.84804809615642,0.));
#341=DIRECTION('center_axis',(0.,0.,1.));
#342=DIRECTION('ref_axis',(0.529919264233215,-0.84804809615642,0.));
#343=DIRECTION('',(0.,0.,-1.));
#344=DIRECTION('center_axis',(0.438371146789078,0.898794046299167,0.));
#345=DIRECTION('ref_axis',(-0.898794046299167,0.438371146789078,0.));
#346=DIRECTION('',(0.,0.,-1.));
#347=DIRECTION('',(0.898794046299167,-0.438371146789078,0.));
#348=DIRECTION('center_axis',(-0.438371146789078,0.898794046299167,0.));
#349=DIRECTION('ref_axis',(-0.898794046299167,-0.438371146789078,0.));
#350=DIRECTION('',(0.898794046299167,0.438371146789078,0.));
#351=DIRECTION('',(0.,0.,-1.));
#352=DIRECTION('center_axis',(0.,0.,1.));
#353=DIRECTION('ref_axis',(1.,0.,0.));
#354=DIRECTION('center_axis',(0.,0.,-1.));
#355=DIRECTION('ref_axis',(0.,-1.,0.));
#356=DIRECTION('',(-0.950956826721038,0.309323639110647,0.));
#357=DIRECTION('',(0.,-1.,0.));
#358=DIRECTION('',(-0.950956826721038,-0.309323639110647,0.));
#359=DIRECTION('center_axis',(0.,0.,1.));
#360=DIRECTION('ref_axis',(0.,1.,0.));
#361=DIRECTION('center_axis',(0.309323639110647,0.950956826721038,0.));
#362=DIRECTION('ref_axis',(-0.950956826721038,0.309323639110647,0.));
#363=DIRECTION('center_axis',(-0.309323639110647,-0.950956826721038,0.));
#364=DIRECTION('ref_axis',(-0.950956826721038,0.309323639110647,9.238023938939E-17));
#365=DIRECTION('',(0.,0.,1.));
#366=DIRECTION('center_axis',(-0.309323639110647,-0.950956826721038,0.));
#367=DIRECTION('ref_axis',(-0.950956826721038,0.309323639110647,1.35139093049622E-16));
#368=DIRECTION('',(-0.931178379888936,0.302890180747288,-0.202890027439232));
#369=DIRECTION('center_axis',(0.,0.,-1.));
#370=DIRECTION('ref_axis',(0.,-1.,0.));
#371=DIRECTION('center_axis',(-0.212890457523318,0.,0.977076073341023));
#372=DIRECTION('ref_axis',(0.977076073341023,0.,0.212890457523318));
#373=DIRECTION('',(0.,1.,0.));
#374=DIRECTION('',(-0.931178379888936,-0.302890180747288,-0.202890027439232));
#375=DIRECTION('',(0.,-1.,0.));
#376=DIRECTION('center_axis',(0.,1.,0.));
#377=DIRECTION('ref_axis',(-0.212890457523318,0.,0.977076073341023));
#378=DIRECTION('center_axis',(0.309323639110647,-0.950956826721038,0.));
#379=DIRECTION('ref_axis',(-0.950956826721038,-0.309323639110647,1.35139093049622E-16));
#380=DIRECTION('center_axis',(0.,-1.,0.));
#381=DIRECTION('ref_axis',(-0.994252501465535,0.,-0.107060559168751));
#382=DIRECTION('center_axis',(0.309323639110647,-0.950956826721038,0.));
#383=DIRECTION('ref_axis',(-0.950956826721038,-0.309323639110647,9.238023938939E-17));
#384=DIRECTION('center_axis',(-0.309323639110647,0.950956826721038,0.));
#385=DIRECTION('ref_axis',(-0.950956826721038,-0.309323639110647,0.));
#386=DIRECTION('',(0.,0.,1.));
#387=DIRECTION('center_axis',(0.,0.,1.));
#388=DIRECTION('ref_axis',(0.,1.,0.));
#389=DIRECTION('',(0.,0.,1.));
#390=DIRECTION('',(1.,0.,0.));
#391=CARTESIAN_POINT('',(0.,0.,0.));
#392=CARTESIAN_POINT('',(0.,0.,0.));
#393=CARTESIAN_POINT('Origin',(47.3049101938719,17.4011286687247,-0.0212890457523305));
#394=CARTESIAN_POINT('',(46.8661006759359,18.3008215090706,0.0940114016474321));
#395=CARTESIAN_POINT('',(48.3059101938724,17.4011286687247,-0.0128168659600275));
#396=CARTESIAN_POINT('Origin',(47.3049101938719,17.4011286687247,0.0614534417042606));
#397=CARTESIAN_POINT('',(48.3059101938724,17.4011286687247,-0.0222890457523305));
#398=CARTESIAN_POINT('',(48.3059101938724,17.4011286687247,-0.0212890457523305));
#399=CARTESIAN_POINT('',(46.8661006759359,18.3008215090706,-0.0222890457523305));
#400=CARTESIAN_POINT('Origin',(47.3049101938719,17.4011286687247,-0.0222890457523305));
#401=CARTESIAN_POINT('',(46.8661006759359,18.3008215090706,-0.0212890457523305));
#402=CARTESIAN_POINT('Origin',(48.3059101938724,-17.3996654709598,-0.0212890457523305));
#403=CARTESIAN_POINT('',(48.3059101938725,-17.4011286687248,-0.0128168659600316));
#404=CARTESIAN_POINT('',(48.3059101938724,-8.69983273547989,-0.0128168659600306));
#405=CARTESIAN_POINT('',(48.3059101938725,-17.4011286687248,-0.0222890457523305));
#406=CARTESIAN_POINT('',(48.3059101938724,-17.4011286687248,-0.0212890457523305));
#407=CARTESIAN_POINT('',(48.3059101938724,-8.69983273547988,-0.0222890457523305));
#408=CARTESIAN_POINT('Origin',(13.3863151689218,0.,2.57808130188635));
#409=CARTESIAN_POINT('',(27.3897250312568,8.80155840001018,1.53908274162235));
#410=CARTESIAN_POINT('',(29.741456212603,9.94857433669921,1.36459343254922));
#411=CARTESIAN_POINT('',(26.4640370669298,8.65442974881667,1.60776518908654));
#412=CARTESIAN_POINT('Origin',(27.3920079842775,5.8015592686051,1.53891335538535));
#413=CARTESIAN_POINT('',(13.3863151689218,4.40055784306767,2.57808130188635));
#414=CARTESIAN_POINT('',(19.3355441992521,6.33570055602315,2.13667164109939));
#415=CARTESIAN_POINT('',(13.3863151689218,-4.40055784306767,2.57808130188635));
#416=CARTESIAN_POINT('',(13.3863151689218,0.,2.57808130188635));
#417=CARTESIAN_POINT('',(26.4640370669298,-8.65442974881667,1.60776518908654));
#418=CARTESIAN_POINT('',(19.3355441992521,-6.33570055602315,2.13667164109939));
#419=CARTESIAN_POINT('',(27.3897250312568,-8.80155840001018,1.53908274162235));
#420=CARTESIAN_POINT('Origin',(27.3920079842775,-5.8015592686051,1.53891335538535));
#421=CARTESIAN_POINT('',(46.8661006759359,-18.3008215090706,0.094011401647427));
#422=CARTESIAN_POINT('',(29.741456212603,-9.94857433669921,1.36459343254922));
#423=CARTESIAN_POINT('Origin',(47.304910193872,-17.4011286687248,0.061453441704256));
#424=CARTESIAN_POINT('Origin',(47.304910193872,-17.4011286687248,-0.0212890457523305));
#425=CARTESIAN_POINT('',(46.8661006759359,-18.3008215090706,-0.0222890457523305));
#426=CARTESIAN_POINT('Origin',(47.304910193872,-17.4011286687248,-0.0222890457523305));
#427=CARTESIAN_POINT('',(46.8661006759359,-18.3008215090706,-0.0212890457523305));
#428=CARTESIAN_POINT('Origin',(46.8631006759359,-18.2993583113049,-0.0212890457523305));
#429=CARTESIAN_POINT('',(27.3897250312568,-8.80155840001018,-0.0222890457523305));
#430=CARTESIAN_POINT('',(27.3897250312568,-8.80155840001018,-0.0212890457523305));
#431=CARTESIAN_POINT('',(34.0555415675007,-12.0526943541375,-0.0222890457523305));
#432=CARTESIAN_POINT('Origin',(46.8631006759359,18.2993583113049,-0.0212890457523305));
#433=CARTESIAN_POINT('',(27.3897250312568,8.80155840001018,-0.0222890457523305));
#434=CARTESIAN_POINT('',(34.0555415675007,12.0526943541375,-0.0222890457523305));
#435=CARTESIAN_POINT('',(27.3897250312568,8.80155840001018,-0.0212890457523305));
#436=CARTESIAN_POINT('Origin',(24.0797726938718,4.51819837886384E-14,-0.0222890457523305));
#437=CARTESIAN_POINT('',(26.4640370669298,-8.65442974881667,-0.0222890457523305));
#438=CARTESIAN_POINT('Origin',(27.3920079842775,-5.8015592686051,-0.0222890457523305));
#439=CARTESIAN_POINT('',(0.0834392878443941,-0.0734487014670617,-0.0222890457523305));
#440=CARTESIAN_POINT('',(24.1131043341503,-7.88972724311497,-0.0222890457523305));
#441=CARTESIAN_POINT('',(0.0834392878443941,0.0734487014670617,-0.0222890457523305));
#442=CARTESIAN_POINT('',(0.0834392878443964,2.25909918943192E-14,-0.0222890457523305));
#443=CARTESIAN_POINT('',(26.4640370669298,8.65442974881667,-0.0222890457523305));
#444=CARTESIAN_POINT('',(24.1131043341503,7.88972724311497,-0.0222890457523305));
#445=CARTESIAN_POINT('Origin',(27.3920079842775,5.8015592686051,-0.0222890457523305));
#446=CARTESIAN_POINT('Origin',(26.4640370669298,-8.65442974881667,-0.0212890457523305));
#447=CARTESIAN_POINT('',(0.0791814786939335,-0.0720637374139608,0.0172524757144896));
#448=CARTESIAN_POINT('Origin',(0.0834392878443964,-0.073448701467062,-0.00228904575233088));
#449=CARTESIAN_POINT('',(26.4640370669298,-8.65442974881667,-0.0212890457523305));
#450=CARTESIAN_POINT('',(11.0912497184769,-3.65402763561698,2.41661963842585));
#451=CARTESIAN_POINT('Origin',(12.7943733786635,-4.20801325685789,-5.39998894830234));
#452=CARTESIAN_POINT('',(12.6344175961712,-4.15598344504415,2.75285314621635));
#453=CARTESIAN_POINT('Origin',(27.3920079842775,-5.8015592686051,-0.0212890457523305));
#454=CARTESIAN_POINT('Origin',(-0.0977076073341027,0.,-0.0212890457523318));
#455=CARTESIAN_POINT('',(11.0912497184769,3.65402763561698,2.41661963842585));
#456=CARTESIAN_POINT('',(11.0912497184769,0.,2.41661963842585));
#457=CARTESIAN_POINT('',(0.0791814786939335,0.0720637374139608,0.0172524757144896));
#458=CARTESIAN_POINT('',(12.6344175961712,4.15598344504415,2.75285314621635));
#459=CARTESIAN_POINT('',(0.0791814786939303,-2.25909918943192E-14,0.0172524757144885));
#460=CARTESIAN_POINT('Origin',(12.7943733786635,0.,-5.39998894830234));
#461=CARTESIAN_POINT('Origin',(12.7943733786635,4.20801325685789,-5.39998894830234));
#462=CARTESIAN_POINT('Origin',(0.0834392878443964,2.25909918943192E-14,
-0.00228904575233088));
#463=CARTESIAN_POINT('Origin',(0.0834392878443964,0.073448701467062,-0.00228904575233088));
#464=CARTESIAN_POINT('Origin',(26.4640370669298,8.65442974881667,-0.0212890457523305));
#465=CARTESIAN_POINT('',(26.4640370669298,8.65442974881667,-0.0212890457523305));
#466=CARTESIAN_POINT('Origin',(27.3920079842775,5.8015592686051,-0.0212890457523305));
#467=CARTESIAN_POINT('',(0.,0.,0.));
#468=UNCERTAINTY_MEASURE_WITH_UNIT(LENGTH_MEASURE(1.E-5),#474,
'DISTANCE_ACCURACY_VALUE',
'Maximum model space distance between geometric entities at asserted c
onnectivities');
#469=UNCERTAINTY_MEASURE_WITH_UNIT(LENGTH_MEASURE(1.E-5),#474,
'DISTANCE_ACCURACY_VALUE',
'Maximum model space distance between geometric entities at asserted c
onnectivities');
#470=UNCERTAINTY_MEASURE_WITH_UNIT(LENGTH_MEASURE(1.E-5),#474,
'DISTANCE_ACCURACY_VALUE',
'Maximum model space distance between geometric entities at asserted c
onnectivities');
#471=(
GEOMETRIC_REPRESENTATION_CONTEXT(3)
GLOBAL_UNCERTAINTY_ASSIGNED_CONTEXT((#468))
GLOBAL_UNIT_ASSIGNED_CONTEXT((#474,#475,#476))
REPRESENTATION_CONTEXT('','3D')
);
#472=(
GEOMETRIC_REPRESENTATION_CONTEXT(3)
GLOBAL_UNCERTAINTY_ASSIGNED_CONTEXT((#469))
GLOBAL_UNIT_ASSIGNED_CONTEXT((#474,#475,#476))
REPRESENTATION_CONTEXT('','3D')
);
#473=(
GEOMETRIC_REPRESENTATION_CONTEXT(3)
GLOBAL_UNCERTAINTY_ASSIGNED_CONTEXT((#470))
GLOBAL_UNIT_ASSIGNED_CONTEXT((#474,#475,#476))
REPRESENTATION_CONTEXT('','3D')
);
#474=(
LENGTH_UNIT()
NAMED_UNIT(*)
SI_UNIT($,.METRE.)
);
#475=(
NAMED_UNIT(*)
PLANE_ANGLE_UNIT()
SI_UNIT($,.RADIAN.)
);
#476=(
NAMED_UNIT(*)
SI_UNIT($,.STERADIAN.)
SOLID_ANGLE_UNIT()
);
#477=SHAPE_DEFINITION_REPRESENTATION(#479,#482);
#478=SHAPE_DEFINITION_REPRESENTATION(#480,#483);
#479=PRODUCT_DEFINITION_SHAPE('',$,#485);
#480=PRODUCT_DEFINITION_SHAPE('',$,#486);
#481=PRODUCT_DEFINITION_SHAPE($,$,#14);
#482=SHAPE_REPRESENTATION('',(#280,#308),#471);
#483=SHAPE_REPRESENTATION('',(#281),#472);
#484=PRODUCT_DEFINITION_CONTEXT('part definition',#492,'design');
#485=PRODUCT_DEFINITION('2026-07-17-17-18-51-878','BWB Spaceplane V2',#487,
#484);
#486=PRODUCT_DEFINITION('2026-07-26-19-51-34-331','Spaceplane',#488,#484);
#487=PRODUCT_DEFINITION_FORMATION('',$,#494);
#488=PRODUCT_DEFINITION_FORMATION('',$,#495);
#489=PRODUCT_RELATED_PRODUCT_CATEGORY('BWB Spaceplane V2',
'BWB Spaceplane V2',(#494));
#490=PRODUCT_RELATED_PRODUCT_CATEGORY('Spaceplane','Spaceplane',(#495));
#491=APPLICATION_PROTOCOL_DEFINITION('international standard',
'automotive_design',2009,#492);
#492=APPLICATION_CONTEXT(
'Core Data for Automotive Mechanical Design Process');
#493=PRODUCT_CONTEXT('part definition',#492,'mechanical');
#494=PRODUCT('2026-07-17-17-18-51-878','BWB Spaceplane V2',$,(#493));
#495=PRODUCT('2026-07-26-19-51-34-331','Spaceplane',$,(#493));
#496=PRESENTATION_STYLE_ASSIGNMENT((#498));
#497=PRESENTATION_STYLE_ASSIGNMENT((#499));
#498=SURFACE_STYLE_USAGE(.BOTH.,#500);
#499=SURFACE_STYLE_USAGE(.BOTH.,#501);
#500=SURFACE_SIDE_STYLE('',(#502));
#501=SURFACE_SIDE_STYLE('',(#503));
#502=SURFACE_STYLE_FILL_AREA(#504);
#503=SURFACE_STYLE_FILL_AREA(#505);
#504=FILL_AREA_STYLE('Paint - Metal Flake (Blue)',(#506));
#505=FILL_AREA_STYLE('Paint - Metallic (Blue)',(#507));
#506=FILL_AREA_STYLE_COLOUR('Paint - Metal Flake (Blue)',#508);
#507=FILL_AREA_STYLE_COLOUR('Paint - Metallic (Blue)',#509);
#508=COLOUR_RGB('Paint - Metal Flake (Blue)',0.188235294117647,0.231372549019608,
0.588235294117647);
#509=COLOUR_RGB('Paint - Metallic (Blue)',0.188235294117647,0.231372549019608,
0.588235294117647);
ENDSEC;
END-ISO-10303-21;
