DBRep_DrawableShape

CASCADE Topology V1, (c) Matra-Datavision
Locations 2
1
              1               0               0               0 
              0               1               0               0 
              0               0               1               0 
2  1 -1 0
Curve2ds 18
7 0 0  3 25 23  7.2954762733362415 0.11530044739975741  7.2648007895133073 0.11325289433353225  7.203449821867447 0.10906529928680882  7.111423370398672 0.10256155245854202  7.0193969189298633 0.09588996838195106  6.927370467461099 0.089107148228624561  6.8353440159922974 0.082270456691657015  6.7433175645235046 0.075437762028643565  6.6512911130547181 0.068666885902477395  6.5592646615859396 0.06201513023399341  6.4672382101171433 0.055538787923637721  6.3752117586483683 0.049292667612828182  6.2831853071795587 0.043329629534098128  6.1911588557107926 0.03770013823931917  6.0991324042419839 0.032451835519041024  6.0071059527731974 0.027629137154737027  5.9150795013044197 0.023272857278971791  5.823053049835619 0.019419862045540994  5.7310265983668387 0.016102761085963615  5.6390001468980442 0.013349618658732059  5.5469736954292541 0.011183764209468131  5.4549472439604667 0.0096234155554162527  5.3629207924916766 0.0086821941687018275  5.3015698248458154 0.0084717390198521952  5.270894341022883 0.0084721797923046037 
 4.2586033748662366 4 4.3506298263350249 1 4.4426562778038141 1 4.5346827292726024 1 4.6267091807413907 1 4.7187356322101799 1 4.8107620836789682 1 4.9027885351477565 1 4.9948149866165457 1 5.086841438085334 1 5.1788678895541231 1 5.2708943410229114 1 5.3629207924916997 1 5.4549472439604889 1 5.5469736954292772 1 5.6390001468980664 1 5.7310265983668547 1 5.823053049835643 1 5.9150795013044313 1 6.0071059527732205 1 6.0991324042420088 1 6.1911588557107979 1 6.2831853071795862 4
1 -5.3290705182007514e-15 -0.0010000000000000009 1 0 
1 7.2954762733362379 0 0 1 
7 0 0  3 25 23  0.00076098441366885842 1.5603717873746741  0.0055143287045394821 1.5614298260718078  0.015021017286282738 1.5635458919360727  0.029281050158900104 1.5667193108888728  0.043541083031513564 1.5698914046496537  0.057801115904130326 1.5730615282019162  0.072061148776744813 1.5762290369130596  0.086321181649360881 1.5793932866866831  0.1005812145219753 1.582553634087871  0.11484124739459074 1.5857094364755608  0.12910128026720649 1.5888600521328076  0.14336131313982101 1.5920048403973868  0.15762134601243674 1.5951431617920393  0.17188137888505053 1.5982743781545146  0.1861414117576681 1.6013978527673296  0.20040144463028156 1.6045129504872726  0.21466147750289744 1.6076190378744348  0.22892151037551375 1.610715483321485  0.24318154324812713 1.6138016571803435  0.25744157612074414 1.6168769318967928  0.2717016089933586 1.6199406821135622  0.28596164186597417 1.6229922848889935  0.30022167473858968 1.6260311194822545  0.30972836332033321 1.6280480856633397  0.31448170761120492 1.6290542348388728 
 4.7131499647983581 4 4.7274099976709731 1 4.741670030543589 1 4.7559300634162041 1 4.7701900962888191 1 4.7844501291614341 1 4.79871016203405 1 4.812970194906665 1 4.82723022777928 1 4.841490260651895 1 4.8557502935245109 1 4.8700103263971259 1 4.884270359269741 1 4.8985303921423569 1 4.9127904250149719 1 4.9270504578875869 1 4.9413104907602019 1 4.9555705236328178 1 4.9698305565054328 1 4.9840905893780478 1 4.9983506222506637 1 5.0126106551232787 1 5.0268706879958938 4
1 0.28859269211670407 0 0 1 
7 0 0  3 25 23  0.00076098441366885842 -1.5603717873746741  0.0055143287045394821 -1.5614298260718078  0.015021017286282738 -1.5635458919360727  0.029281050158900104 -1.5667193108888728  0.043541083031513564 -1.5698914046496537  0.057801115904130326 -1.5730615282019162  0.072061148776744813 -1.5762290369130596  0.086321181649360881 -1.5793932866866831  0.1005812145219753 -1.582553634087871  0.11484124739459074 -1.5857094364755608  0.12910128026720649 -1.5888600521328076  0.14336131313982101 -1.5920048403973868  0.15762134601243674 -1.5951431617920393  0.17188137888505053 -1.5982743781545146  0.1861414117576681 -1.6013978527673296  0.20040144463028156 -1.6045129504872726  0.21466147750289744 -1.6076190378744348  0.22892151037551375 -1.610715483321485  0.24318154324812713 -1.6138016571803435  0.25744157612074414 -1.6168769318967928  0.2717016089933586 -1.6199406821135622  0.28596164186597417 -1.6229922848889935  0.30022167473858968 -1.6260311194822545  0.30972836332033321 -1.6280480856633397  0.31448170761120492 -1.6290542348388728 
 4.7131499647983581 4 4.7274099976709731 1 4.741670030543589 1 4.7559300634162041 1 4.7701900962888191 1 4.7844501291614341 1 4.79871016203405 1 4.812970194906665 1 4.82723022777928 1 4.841490260651895 1 4.8557502935245109 1 4.8700103263971259 1 4.884270359269741 1 4.8985303921423569 1 4.9127904250149719 1 4.9270504578875869 1 4.9413104907602019 1 4.9555705236328178 1 4.9698305565054328 1 4.9840905893780478 1 4.9983506222506637 1 5.0126106551232787 1 5.0268706879958938 4
7 0 0  3 25 23  -1.012290966156697 -0.0084721797923000032  -0.98161548233376728 -0.0084717390198475895  -0.92026451468790527 -0.0086821941686972427  -0.82823806321910665 -0.0096234155554117701  -0.73621161175031524 -0.011183764209463891  -0.64418516028151329 -0.013349618658728033  -0.55215870881272944 -0.016102761085959975  -0.46013225734391616 -0.019419862045537722  -0.36810580587513719 -0.023272857278969054  -0.27607935440633125 -0.027629137154734792  -0.18405290293753518 -0.0324518355190394  -0.092026451468747689 -0.037700138239318101  4.1295338943459579e-14 -0.043329629534097691  0.092026451468837839 -0.049292667612828391  0.18405290293764948 -0.055538787923638588  0.2760793544064154 -0.062015130233994839  0.36810580587523584 -0.068666885902479463  0.46013225734401314 -0.075437762028646119  0.55215870881281526 -0.08227045669166011  0.64418516028160555 -0.089107148228628086  0.73621161175039784 -0.095889968381954904  0.82823806321919757 -0.10256155245854622  0.92026451468798576 -0.10906529928681312  0.98161548233385154 -0.11325289433353665  1.0122909661567878 -0.11530044739976182 
 0 4 0.092026451468794832 1 0.18405290293758966 1 0.27607935440638448 1 0.36810580587517933 1 0.46013225734397417 1 0.55215870881276896 1 0.64418516028156381 1 0.73621161175035865 1 0.8282380632191535 1 0.92026451468794834 1 1.0122909661567432 1 1.1043174176255379 1 1.1963438690943329 1 1.2883703205631276 1 1.3803967720319226 1 1.4724232235007173 1 1.564449674969512 1 1.656476126438307 1 1.7485025779071017 1 1.8405290293758967 1 1.9325554808446914 1 2.0245819323134864 4
1 6.2831853071795871 0.0010000000000000009 -1 0 
1 1.0122909661567852 0 0 1 
1 0.00076098441366885972 0 0 1 
1 0.00076098441366885972 0 0 -1 
1 -1.4094628242311558e-18 -0.0010000000000000009 1 0 
1 -1.4094628242311558e-18 0.0010000000000000009 1 0 
1 0.31448170761120436 0 0 -1 
7 0 0  3 25 23  0.28859269211670396 -4.4005578430676699  0.28422007556948103 -4.3892105689538132  0.27547484247503556 -4.3665049750499687  0.26235699283336716 -4.3324193126876223  0.24923914319169829 -4.2983122428117229  0.23612129355002914 -4.2641896347660602  0.22300344390836141 -4.2300573601214779  0.20988559426669179 -4.1959212922318896  0.19676774462502392 -4.1617873050718721  0.18364989498335491 -4.1276612722665424  0.17053204534168703 -4.0935490660699729  0.15741419570001799 -4.0594565563576284  0.14429634605834932 -4.0253896096155275  0.13117849641668072 -3.9913540879309632  0.11806064677501224 -3.9573558479837732  0.10494279713334373 -3.9234007400383772  0.091824947491675052 -3.8894946069377858  0.078707097850006333 -3.855643283095552  0.065589248208337544 -3.8218525935017178  0.052471398566669276 -3.7881283526834424  0.039353548925000717 -3.7544763638427248  0.026235699283332498 -3.7209024173417857  0.013117849641662809 -3.6874122916325378  0.0043726165472197809 -3.6651452605941346  0 -3.6540276356169579 
 4.6383285723015799 4 4.6514464219432483 1 4.6645642715849167 1 4.677682121226586 1 4.6907999708682544 1 4.7039178205099228 1 4.7170356701515912 1 4.7301535197932605 1 4.7432713694349289 1 4.7563892190765973 1 4.7695070687182657 1 4.7826249183599341 1 4.7957427680016034 1 4.8088606176432718 1 4.8219784672849402 1 4.8350963169266086 1 4.8482141665682779 1 4.8613320162099463 1 4.8744498658516147 1 4.8875677154932831 1 4.9006855651349515 1 4.9138034147766207 1 4.9269212644182891 4
1 0 0 0 1 
7 0 0  3 25 23  0.28859269211670396 4.4005578430676699  0.28422007556948103 4.3892105689538132  0.27547484247503556 4.3665049750499687  0.26235699283336716 4.3324193126876223  0.24923914319169829 4.2983122428117229  0.23612129355002914 4.2641896347660602  0.22300344390836141 4.2300573601214779  0.20988559426669179 4.1959212922318896  0.19676774462502392 4.1617873050718721  0.18364989498335491 4.1276612722665424  0.17053204534168703 4.0935490660699729  0.15741419570001799 4.0594565563576284  0.14429634605834932 4.0253896096155275  0.13117849641668072 3.9913540879309632  0.11806064677501224 3.9573558479837732  0.10494279713334373 3.9234007400383772  0.091824947491675052 3.8894946069377858  0.078707097850006333 3.855643283095552  0.065589248208337544 3.8218525935017178  0.052471398566669276 3.7881283526834424  0.039353548925000717 3.7544763638427248  0.026235699283332498 3.7209024173417857  0.013117849641662809 3.6874122916325378  0.0043726165472197809 3.6651452605941346  0 3.6540276356169579 
 4.6383285723015799 4 4.6514464219432483 1 4.6645642715849167 1 4.677682121226586 1 4.6907999708682544 1 4.7039178205099228 1 4.7170356701515912 1 4.7301535197932605 1 4.7432713694349289 1 4.7563892190765973 1 4.7695070687182657 1 4.7826249183599341 1 4.7957427680016034 1 4.8088606176432718 1 4.8219784672849402 1 4.8350963169266086 1 4.8482141665682779 1 4.8613320162099463 1 4.8744498658516147 1 4.8875677154932831 1 4.9006855651349515 1 4.9138034147766207 1 4.9269212644182891 4
1 0.31448170761120436 0 0 1 
Curves 30
3 47.304910193871898 17.401128668724699 0.061453441704260599 -0.073992723782285608 0 -0.99725878127358625 0.99725878127358625 4.3181112832270391e-15 -0.073992723782285608 4.3062743957147179e-15 -1 -3.1950881544098913e-16 1.0037515024155299 1.00100000000045
2 47.304910193871898 17.401128668724699 -0.0222890457523305 0 0 1 0.52991926423321301 0.84804809615642096 -0 -0.84804809615642096 0.52991926423321301 0 1.00100000000045
1 46.866100675935897 18.300821509070602 -0.021289045752330499 0 0 1 
1 29.741456212603001 9.9485743366992097 1.3645934325492199 0.89680214750875187 0.43739963283586708 -0.066539232177261098 
3 27.392007984277502 5.8015592686051001 1.53891335538535 0.073992723782285608 0 0.99725878127358625 -0.99725878127358625 0 0.073992723782285608 0 -1 0 3.0082462610353802 3.0000000000509601
1 19.335544199252102 6.3357005560231503 2.1366716410993898 -0.94859853873610278 -0.30855654411634892 0.070382322998792893 
1 13.386315168921801 0 2.5780813018863502 0 1 0 
1 19.335544199252102 -6.3357005560231503 2.1366716410993898 -0.94859853873610278 0.30855654411634892 0.070382322998792893 
3 27.392007984277502 -5.8015592686051001 1.53891335538535 -0.073992723782285608 0 -0.99725878127358625 -0.99725878127358625 0 0.073992723782285608 0 1 0 3.0082462610353802 3.0000000000509601
1 29.741456212603001 -9.9485743366992097 1.3645934325492199 0.89680214750875187 -0.43739963283586708 -0.066539232177261098 
3 47.304910193871997 -17.401128668724802 0.061453441704255998 -0.073992723782285608 0 -0.99725878127358625 0.99725878127358625 -2.4776048346384704e-15 -0.073992723782285608 -2.4708131778691059e-15 -1 1.8332473017105971e-16 1.0037515024155299 1.00100000000045
1 48.3059101938724 -8.6998327354798892 -0.0128168659600306 1.5681244618597797e-15 -1 -1.1634873750066699e-16 
2 47.304910193871997 -17.401128668724802 -0.0222890457523305 0 0 1 0.52991926423321489 -0.84804809615641974 0 0.84804809615641974 0.52991926423321489 -0 1.00100000000045
1 46.866100675935897 -18.300821509070602 -0.021289045752330499 0 0 -1 
1 27.389725031256798 -8.8015584000101796 -0.021289045752330499 0 0 -1 
1 34.055541567500697 -12.0526943541375 -0.0222890457523305 0.8987940462991667 -0.43837114678907785 0 
1 34.055541567500697 12.0526943541375 -0.0222890457523305 0.8987940462991667 0.43837114678907785 0 
1 27.389725031256798 8.8015584000101796 -0.021289045752330499 0 0 -1 
2 27.392007984277502 5.8015592686051001 -0.0222890457523305 0 0 1 0 1 0 -1 0 0 3.0000000000509601
1 24.1131043341503 7.8897272431149696 -0.0222890457523305 -0.95095682672103798 -0.30932363911064698 0 
1 0.079181478693930302 -2.2590991894319201e-14 0.017252475714488499 0 -1 0 
1 24.1131043341503 -7.8897272431149696 -0.0222890457523305 -0.95095682672103798 0.30932363911064698 0 
2 27.392007984277502 -5.8015592686051001 -0.0222890457523305 0 0 -1 0 -1 0 -1 -0 -0 3.0000000000509601
1 26.464037066929802 -8.6544297488166695 -0.021289045752330499 0 0 1 
3 12.794373378663501 -4.2080132568578898 -5.3999889483023402 -0.30932363911064698 -0.95095682672103798 0 -0.95095682672103798 0.30932363911064698 1.35139093049622e-16 -1.2851144309242762e-16 4.1801716048221418e-17 -1 8.4125795989966505 8
1 12.6344175961712 -4.15598344504415 2.7528531462163501 -0.93117837988893559 0.30289018074728791 -0.20289002743923193 
1 11.091249718476901 0 2.4166196384258498 0 1 0 
1 12.6344175961712 4.15598344504415 2.7528531462163501 -0.93117837988893559 -0.30289018074728791 -0.20289002743923193 
3 12.794373378663501 4.2080132568578898 -5.3999889483023402 0.30932363911064698 -0.95095682672103798 0 -0.95095682672103798 -0.30932363911064698 1.35139093049622e-16 -1.2851144309242762e-16 -4.1801716048221418e-17 -1 8.4125795989966505 8
1 26.464037066929802 8.6544297488166695 -0.021289045752330499 0 0 1 
Polygon3D 0
PolygonOnTriangulations 80
13 14 15 16 17 18 19 20 21 22 23 24 25 1 
p 0.193225268524086 1 4.25860337486624 4.42731853589235 4.59603369691846 4.76474885794457 4.93346401897069 5.1021791799968 5.27089434102291 5.43960950204902 5.60832466307513 5.77703982410125 5.94575498512736 6.11447014615347 6.28318530717959 
13 1 2 3 4 5 6 7 8 9 10 11 12 13 
p 0.193225268524086 1 4.25860337486624 4.42731853589235 4.59603369691846 4.76474885794457 4.93346401897069 5.1021791799968 5.27089434102291 5.43960950204902 5.60832466307513 5.77703982410125 5.94575498512736 6.11447014615347 6.28318530717959 
13 1 2 3 4 5 6 7 8 9 10 11 12 13 
p 0.193225268524086 1 5.27089434102288 5.439609502049 5.60832466307511 5.77703982410122 5.94575498512733 6.11447014615345 6.28318530717956 6.45190046820567 6.62061562923178 6.78933079025789 6.95804595128401 7.12676111231012 7.29547627333624 
13 19 20 21 22 23 24 25 26 27 28 29 30 31 
p 0.193225268524086 1 5.27089434102288 5.439609502049 5.60832466307511 5.77703982410122 5.94575498512733 6.11447014615345 6.28318530717956 6.45190046820567 6.62061562923178 6.78933079025789 6.95804595128401 7.12676111231012 7.29547627333624 
2 30 1 
p 0.00575923887174585 1 -0.001 0.115300447399763 
2 13 14 
p 0.193225268524086 1 -0.001 0.115300447399763 
2 1 2 
p 0.193225268524086 1 -0.001 0.115300447399763 
2 14 1 
p 0.192969884424112 1 -2.62235230800811 19.0952313293449 
2 14 1 
p 0.193225268524086 1 -2.62235230800811 19.0952313293449 
2 4 2 
p 0.193225268524086 1 -2.62235230800811 19.0952313293449 
4 14 15 16 17 
p 0.192969884424112 1 4.71314996479836 4.81772353919754 4.92229711359671 5.02687068799589 
4 1 2 3 4 
p 0.193225268524086 1 4.71314996479836 4.81772353919754 4.92229711359671 5.02687068799589 
4 14 15 16 17 
p 0.193225268524086 1 4.71314996479836 4.81772353919754 4.92229711359671 5.02687068799589 
2 17 18 
p 0.192969884424112 1 -7.51476264888157 6.2715983499795 
2 10 7 
p 0.192969884424112 1 -7.51476264888157 6.2715983499795 
2 17 18 
p 0.193225268524086 1 -7.51476264888157 6.2715983499795 
2 6 3 
p 0.193225268524086 1 -7.51476264888157 6.2715983499795 
2 19 18 
p 0.192969884424112 1 -4.40055784306767 4.40055784306767 
2 1 2 
p 0.193225268524086 1 -4.40055784306767 4.40055784306767 
2 19 18 
p 0.193225268524086 1 -4.40055784306767 4.40055784306767 
2 20 19 
p 0.192969884424112 1 -7.51476264888157 6.2715983499795 
2 6 3 
p 0.192969884424112 1 -7.51476264888157 6.2715983499795 
2 20 19 
p 0.193225268524086 1 -7.51476264888157 6.2715983499795 
2 6 3 
p 0.193225268524086 1 -7.51476264888157 6.2715983499795 
4 21 22 23 20 
p 0.192969884424112 1 4.71314996479836 4.81772353919754 4.92229711359671 5.02687068799589 
4 1 2 3 4 
p 0.193225268524086 1 4.71314996479836 4.81772353919754 4.92229711359671 5.02687068799589 
4 21 22 23 20 
p 0.193225268524086 1 4.71314996479836 4.81772353919754 4.92229711359671 5.02687068799589 
2 21 24 
p 0.192969884424112 1 -2.62235230800811 19.0952313293449 
2 21 24 
p 0.193225268524086 1 -2.62235230800811 19.0952313293449 
2 3 4 
p 0.193225268524086 1 -2.62235230800811 19.0952313293449 
13 1 2 3 4 5 6 7 8 9 10 11 12 13 
p 0.193225268524086 1 0 0.168715161026124 0.337430322052248 0.506145483078372 0.674860644104496 0.843575805130619 1.01229096615674 1.18100612718287 1.34972128820899 1.51843644923512 1.68715161026124 1.85586677128736 2.02458193231349 
13 25 26 27 28 29 30 31 32 33 34 35 36 24 
p 0.193225268524086 1 0 0.168715161026124 0.337430322052248 0.506145483078372 0.674860644104496 0.843575805130619 1.01229096615674 1.18100612718287 1.34972128820899 1.51843644923512 1.68715161026124 1.85586677128736 2.02458193231349 
2 13 25 
p 0.193225268524086 1 -26.1009614042046 8.70129593324491 
2 19 18 
p 0.193225268524086 1 -26.1009614042046 8.70129593324491 
13 14 15 16 17 18 19 20 21 22 23 24 25 1 
p 0.193225268524086 1 5.2708943410228 5.43960950204892 5.60832466307505 5.77703982410117 5.94575498512729 6.11447014615342 6.28318530717954 6.45190046820567 6.62061562923179 6.78933079025791 6.95804595128404 7.12676111231016 7.29547627333629 
13 6 7 8 9 10 11 12 13 14 15 16 17 18 
p 0.193225268524086 1 5.2708943410228 5.43960950204892 5.60832466307505 5.77703982410117 5.94575498512729 6.11447014615342 6.28318530717954 6.45190046820567 6.62061562923179 6.78933079025791 6.95804595128404 7.12676111231016 7.29547627333629 
2 30 1 
p 0.00575923887174631 1 -0.115300447399757 0.001 
2 13 14 
p 0.193225268524086 1 -0.115300447399757 0.001 
2 4 2 
p 0.193225268524086 1 -0.115300447399757 0.001 
2 1 6 
p 0.193225268524086 1 -1.56037178737468 0.001 
2 3 1 
p 0.193225268524086 1 -1.56037178737468 0.001 
2 9 12 
p 0.192969884424112 1 -7.41640041307655 14.2530529226171 
2 1 2 
p 0.193225268524086 1 -7.41640041307655 14.2530529226171 
2 3 6 
p 0.193225268524086 1 -7.41640041307655 14.2530529226171 
2 1 2 
p 0.192969884424112 1 -7.41640041307655 14.2530529226171 
2 3 1 
p 0.193225268524086 1 -7.41640041307655 14.2530529226171 
2 32 31 
p 0.193225268524086 1 -7.41640041307655 14.2530529226171 
2 1 5 
p 0.193225268524086 1 -1.56037178737468 0.001 
2 4 3 
p 0.193225268524086 1 -1.56037178737468 0.001 
4 1 3 4 5 
p 0.192969884424112 1 0.00076098441366886 0.105334558812847 0.209908133212026 0.314481707611204 
4 5 6 7 8 
p 0.193225268524086 1 0.00076098441366886 0.105334558812847 0.209908133212026 0.314481707611204 
4 32 33 34 35 
p 0.193225268524086 1 0.00076098441366886 0.105334558812847 0.209908133212026 0.314481707611204 
2 35 36 
p 0.193225268524086 1 -2.47217609329929 25.2689337424095 
2 7 2 
p 0.193225268524086 1 -2.47217609329929 25.2689337424095 
2 36 2 
p 0.193225268524086 1 -0.0720637374139834 0.0720637374139382 
2 3 4 
p 0.193225268524086 1 -0.0720637374139834 0.0720637374139382 
2 1 2 
p 0.193225268524086 1 -2.47217609329929 25.2689337424095 
2 7 2 
p 0.193225268524086 1 -2.47217609329929 25.2689337424095 
4 9 10 11 8 
p 0.192969884424112 1 0.00076098441366886 0.105334558812847 0.209908133212026 0.314481707611204 
4 6 7 8 5 
p 0.193225268524086 1 0.00076098441366886 0.105334558812847 0.209908133212026 0.314481707611204 
4 3 4 5 1 
p 0.193225268524086 1 0.00076098441366886 0.105334558812847 0.209908133212026 0.314481707611204 
2 7 6 
p 0.192969884424112 1 -0.001 1.62905423483887 
2 5 4 
p 0.193225268524086 1 -0.001 1.62905423483887 
2 7 6 
p 0.193225268524086 1 -0.001 1.62905423483887 
4 3 4 5 1 
p 0.192969884424112 1 4.63832857230158 4.76659199102012 4.8467566277192 4.92692126441829 
4 1 7 8 6 
p 0.193225268524086 1 4.63832857230158 4.76659199102012 4.8467566277192 4.92692126441829 
4 3 4 5 1 
p 0.193225268524086 1 4.63832857230158 4.76659199102012 4.8467566277192 4.92692126441829 
2 1 2 
p 0.193225268524086 1 1.65722047571418 13.483169700498 
2 1 4 
p 0.193225268524086 1 1.65722047571418 13.483169700498 
2 1 2 
p 0.192969884424112 1 -3.65402763561698 3.65402763561698 
2 6 5 
p 0.193225268524086 1 -3.65402763561698 3.65402763561698 
2 1 2 
p 0.193225268524086 1 -3.65402763561698 3.65402763561698 
2 2 3 
p 0.193225268524086 1 1.65722047571418 13.483169700498 
2 1 2 
p 0.193225268524086 1 1.65722047571418 13.483169700498 
4 7 8 9 6 
p 0.192969884424112 1 4.63832857230158 4.76659199102012 4.8467566277192 4.92692126441829 
4 2 3 4 5 
p 0.193225268524086 1 4.63832857230158 4.76659199102012 4.8467566277192 4.92692126441829 
4 3 4 5 1 
p 0.193225268524086 1 4.63832857230158 4.76659199102012 4.8467566277192 4.92692126441829 
2 11 10 
p 0.192969884424112 1 -0.001 1.62905423483887 
2 8 4 
p 0.193225268524086 1 -0.001 1.62905423483887 
2 7 6 
p 0.193225268524086 1 -0.001 1.62905423483887 
Surfaces 12
2 47.304910193871898 17.401128668724699 -0.021289045752330499 0 0 1 0.52991926423321301 0.84804809615642096 -0 -0.84804809615642096 0.52991926423321301 0 1.00100000000045
1 13.386315168921801 0 2.5780813018863502 0.073992723782285608 0 0.99725878127358625 0.99725878127358625 0 -0.073992723782285608 -0 1 0 
1 24.079772693871799 4.5181983788638402e-14 -0.0222890457523305 0 0 1 1 0 -0 -0 1 0 
1 46.863100675935897 18.2993583113049 -0.021289045752330499 -0.4383711467890779 0.89879404629916682 0 -0.89879404629916682 -0.4383711467890779 0 0 0 1 
2 27.392007984277502 5.8015592686051001 -0.021289045752330499 0 0 1 0 1 0 -1 0 0 3.0000000000509601
1 26.464037066929802 8.6544297488166695 -0.021289045752330499 -0.30932363911064698 0.95095682672103798 0 -0.95095682672103798 -0.30932363911064698 0 0 0 1 
2 12.794373378663501 0 -5.3999889483023402 0 1 0 -0.21289045752331803 0 0.97707607334102309 0.97707607334102309 -0 0.21289045752331803 8
1 26.464037066929802 -8.6544297488166695 -0.021289045752330499 0.30932363911064698 0.95095682672103798 0 -0.95095682672103798 0.30932363911064698 0 0 -0 1 
2 27.392007984277502 -5.8015592686051001 -0.021289045752330499 0 0 -1 0 -1 0 -1 -0 -0 3.0000000000509601
1 46.863100675935897 -18.2993583113049 -0.021289045752330499 0.4383711467890779 0.89879404629916682 0 -0.89879404629916682 0.4383711467890779 0 0 -0 1 
2 47.304910193871997 -17.401128668724802 -0.021289045752330499 0 0 -1 0.52991926423321489 -0.84804809615641974 0 -0.84804809615641974 -0.52991926423321489 -0 1.00100000000045
1 -0.097707607334102706 0 -0.021289045752331801 -0.21289045752331803 0 0.97707607334102309 0.97707607334102309 0 0.21289045752331803 0 1 -0 
Triangulations 19
25 23 1 0.00355954717323566
48.3059101938724 17.4011286687247 -0.017552955856179 48.2916973206162 17.5692124766676 -0.0222890457523305 48.2494623087723 17.7325231500277 -0.0222890457523305 48.1804045207188 17.8864230985915 -0.0222890457523305 48.0864850145756 18.0265419717835 -0.0222890457523305 47.9703708553518 18.1489007650373 -0.0222890457523305 47.8353593773696 18.2500248129776 -0.0222890457523305 47.6852845487104 18.3270424607065 -0.0222890457523305 47.5244080966841 18.3777666111895 -0.0222890457523305 47.3572984860712 18.4007568330145 -0.0222890457523305 47.1887011868326 18.3953602648248 -0.0222890457523305 47.0234039153427 18.3617301548518 -0.0222890457523305 46.8661006759359 18.3008215090706 -0.0222890457523305 46.8661006759359 18.3008215090706 0.0940114016474321 47.0234039153427 18.3617301548518 0.0823401129487967 47.1887011868325 18.3953602648248 0.0700756981539809 47.3572984860712 18.4007568330145 0.0575664341321889 47.5244080966841 18.3777666111895 0.0451675508216205 47.6852845487104 18.3270424607065 0.0332311436408782 47.8353593773696 18.2500248129776 0.0220961749124262 47.9703708553518 18.1489007650373 0.0120788482311665 48.0864850145756 18.0265419717835 0.0034636291205472 48.1804045207188 17.8864230985915 -0.00350483303423087 48.2494623087723 17.7325231500277 -0.0086286523802288 48.2916973206162 17.5692124766676 -0.0117623260304298 5.27089434102288 0.0084721797923046 5.43960950204899 -0.001 5.6083246630751 -0.001 5.77703982410122 -0.001 5.94575498512733 -0.001 6.11447014615344 -0.001 6.28318530717955 -0.001 6.45190046820566 -0.001 6.62061562923178 -0.001 6.78933079025789 -0.001 6.958045951284 -0.001 7.12676111231011 -0.001 7.29547627333624 -0.001 7.29547627333624 0.115300447399757 7.12676111231013 0.103629150687405 6.95804595128402 0.0913647413220429 6.7893307902579 0.078855480514542 6.62061562923179 0.0664565993032272 6.45190046820569 0.054520191353453 6.28318530717957 0.0433852206647568 6.11447014615346 0.0333678965689264 5.94575498512735 0.0247526832599505 5.77703982410123 0.0177842251658815 5.60832466307512 0.0126604067411932 5.439609502049 0.00952674320013101 25 1 2 3 25 2 24 25 3 4 24 3 23 24 4 5 23 4 22 23 5 6 22 5 21 22 6 7 21 6 20 21 7 8 20 7 19 20 8 9 19 8 18 9 10 18 19 9 17 10 11 17 18 10 16 11 12 16 17 11 15 12 13 15 16 12 14 15 13 
36 34 1 0.00315739326410303
46.8661006759359 18.3008215090706 0.0940114016474321 47.0234039153427 18.3617301548518 0.0823401129487967 47.1887011868325 18.3953602648248 0.0700756981539809 47.3572984860712 18.4007568330145 0.0575664341321889 47.5244080966841 18.3777666111895 0.0451675508216205 47.6852845487104 18.3270424607065 0.0332311436408782 47.8353593773696 18.2500248129776 0.0220961749124262 47.9703708553518 18.1489007650373 0.0120788482311665 48.0864850145756 18.0265419717835 0.0034636291205472 48.1804045207188 17.8864230985915 -0.00350483303423087 48.2494623087723 17.7325231500277 -0.0086286523802288 48.2916973206162 17.5692124766676 -0.0117623260304298 48.3059101938724 17.4011286687247 -0.017552955856179 27.3897250312568 8.80155840001018 1.53908274162235 27.0765883466471 8.78493159744756 1.56231626600489 26.7668978330432 8.73570945207042 1.58529409789906 26.4640370669298 8.65442974881667 1.60776518908654 13.3863151689218 4.40055784306767 2.57808130188635 13.3863151689218 -4.40055784306767 2.57808130188635 26.4640370669298 -8.65442974881667 1.60776518908654 27.3897250312568 -8.80155840001018 1.53908274162235 27.0765883466471 -8.78493159744756 1.56231626600489 26.7668978330432 -8.73570945207042 1.58529409789906 46.8661006759359 -18.3008215090706 0.094011401647427 48.3059101938725 -17.4011286687248 -0.0175529558561811 48.2916973206163 -17.5692124766677 -0.0117623260304343 48.2494623087724 -17.7325231500278 -0.00862865238023298 48.1804045207189 -17.8864230985916 -0.00350483303423442 48.0864850145757 -18.0265419717836 0.00346362912054451 47.9703708553518 -18.1489007650374 0.0120788482311648 47.8353593773696 -18.2500248129778 0.0220961749124257 47.6852845487104 -18.3270424607066 0.0332311436408788 47.5244080966841 -18.3777666111896 0.0451675508216223 47.3572984860712 -18.4007568330146 0.0575664341321917 47.1887011868325 -18.3953602648249 0.0700756981539846 47.0234039153427 -18.3617301548518 0.0823401129488009 33.5718131900102 18.3008215090706 33.7295488172723 18.3617301548518 33.8953004502424 18.3953602648248 34.0643611819246 18.4007568330145 34.2319301356916 18.3777666111895 34.3932487974544 18.3270424607065 34.5437361448484 18.2500248129776 34.679118736125 18.1489007650373 34.7955520645691 18.0265419717835 34.8897297322987 17.8864230985915 34.9589773432 17.7325231500277 35.0013284486873 17.5692124766676 35.0155803896309 17.4011286687247 14.0419017864665 8.80155840001018 13.7279043662485 8.78493159744756 13.4173625897114 8.73570945207042 13.1136693339582 8.65442974881667 0 4.40055784306767 -3.5527136788005e-15 -4.40055784306768 13.1136693339582 -8.65442974881667 14.0419017864665 -8.80155840001018 13.7279043662485 -8.78493159744756 13.4173625897114 -8.73570945207042 33.5718131900102 -18.3008215090706 35.0155803896309 -17.4011286687248 35.0013284486874 -17.5692124766677 34.9589773432 -17.7325231500278 34.8897297322988 -17.8864230985916 34.7955520645692 -18.0265419717836 34.679118736125 -18.1489007650374 34.5437361448484 -18.2500248129778 34.3932487974544 -18.3270424607066 34.2319301356916 -18.3777666111896 34.0643611819246 -18.4007568330146 33.8953004502424 -18.3953602648249 33.7295488172723 -18.3617301548518 20 18 19 22 20 23 21 20 22 25 21 24 25 27 26 25 28 27 25 29 28 25 30 29 25 31 30 25 32 31 25 33 32 25 34 33 25 35 34 25 36 35 25 24 36 17 18 20 15 16 17 14 17 20 14 20 21 14 15 17 13 2 1 13 3 2 13 1 14 13 21 25 13 14 21 4 3 13 5 4 13 11 13 12 6 5 13 10 13 11 7 6 13 9 13 10 8 7 13 8 13 9 
36 34 1 0.0132567000195405
26.4640370669298 -8.65442974881667 -0.0222890457523305 0.0813103832691638 -0.0727562194405112 -0.00251828501892045 27.3897250312568 -8.80155840001018 -0.0222890457523305 27.0765883466471 -8.78493159744756 -0.0222890457523305 26.7668978330432 -8.73570945207042 -0.0222890457523305 46.8661006759359 -18.3008215090706 -0.0222890457523305 47.0234039153427 -18.3617301548518 -0.0222890457523305 47.1887011868325 -18.3953602648249 -0.0222890457523305 47.3572984860712 -18.4007568330146 -0.0222890457523305 47.5244080966841 -18.3777666111896 -0.0222890457523305 47.6852845487104 -18.3270424607066 -0.0222890457523305 47.8353593773696 -18.2500248129778 -0.0222890457523305 47.9703708553518 -18.1489007650374 -0.0222890457523305 48.0864850145757 -18.0265419717836 -0.0222890457523305 48.1804045207189 -17.8864230985916 -0.0222890457523305 48.2494623087724 -17.7325231500278 -0.0222890457523305 48.2916973206163 -17.5692124766677 -0.0222890457523305 48.3059101938725 -17.4011286687248 -0.0175529558561811 48.3059101938724 17.4011286687247 -0.017552955856179 48.2916973206162 17.5692124766676 -0.0222890457523305 48.2494623087723 17.7325231500277 -0.0222890457523305 48.1804045207188 17.8864230985915 -0.0222890457523305 48.0864850145756 18.0265419717835 -0.0222890457523305 47.9703708553518 18.1489007650373 -0.0222890457523305 47.8353593773696 18.2500248129776 -0.0222890457523305 47.6852845487104 18.3270424607065 -0.0222890457523305 47.5244080966841 18.3777666111895 -0.0222890457523305 47.3572984860712 18.4007568330145 -0.0222890457523305 47.1887011868326 18.3953602648248 -0.0222890457523305 47.0234039153427 18.3617301548518 -0.0222890457523305 46.8661006759359 18.3008215090706 -0.0222890457523305 27.3897250312568 8.80155840001018 -0.0222890457523305 27.0765883466471 8.78493159744756 -0.0222890457523305 26.7668978330432 8.73570945207042 -0.0222890457523305 26.4640370669298 8.65442974881667 -0.0222890457523305 0.0813103832691638 0.0727562194405112 -0.00251828501892045 2.384264373058 -8.65442974881672 -24.0005912151779 -0.0720637374140054 3.30995233738502 -8.80155840001019 2.99681565277532 -8.7849315974476 2.68712513917138 -8.73570945207046 22.7863279820641 -18.3008215090707 22.9436312214709 -18.3617301548519 23.1089284929607 -18.395360264825 23.2775257921994 -18.4007568330146 23.4446354028123 -18.3777666111897 23.6055118548386 -18.3270424607067 23.7555866834978 -18.2500248129778 23.89059816148 -18.1489007650374 24.0067123207039 -18.0265419717837 24.1006318268471 -17.8864230985917 24.1696896149006 -17.7325231500279 24.2119246267445 -17.5692124766678 24.2261375000006 -17.4011286687248 24.2261375000005 17.4011286687246 24.2119246267444 17.5692124766675 24.1696896149005 17.7325231500276 24.100631826847 17.8864230985914 24.0067123207038 18.0265419717834 23.89059816148 18.1489007650372 23.7555866834978 18.2500248129776 23.6055118548386 18.3270424607064 23.4446354028123 18.3777666111895 23.2775257921994 18.4007568330144 23.1089284929608 18.3953602648248 22.9436312214709 18.3617301548517 22.7863279820641 18.3008215090705 3.309952337385 8.80155840001014 2.99681565277532 8.78493159744751 2.68712513917138 8.73570945207037 2.38426437305801 8.6544297488166 -24.0005912151779 0.0720637374139166 1 36 2 3 5 4 3 1 5 9 6 7 9 7 8 12 9 10 12 10 11 12 6 9 14 12 13 14 6 12 17 14 15 17 15 16 18 3 6 18 6 14 18 14 17 35 36 1 35 1 3 33 34 35 32 35 3 32 33 35 19 31 32 19 3 18 19 32 3 28 29 30 27 28 30 22 19 20 22 20 21 25 26 27 25 27 30 23 19 22 23 30 31 23 31 19 24 30 23 24 25 30 
30 28 1 0.0031502657172883
46.8661006759359 18.3008215090706 0.0940114016474321 47.0070658281461 18.3567906036192 0.0835523354889973 47.1548688243414 18.390819826324 0.0725859278954618 47.3061517244169 18.4021278987957 0.0613613249654486 47.4574107237084 18.3904438805761 0.0501384953806643 47.6051622085144 18.3560368987154 0.0391759097319224 47.7460049311263 18.2997033360548 0.0287259273736217 47.8767004819731 18.2227471120632 0.0190288257035505 47.9942491398798 18.1269473909396 0.0103071723686382 48.0959590417983 18.0145149419614 0.0027606931398757 48.1795070117483 17.888038728347 -0.00343824135853408 48.2429898402683 17.7504244989572 -0.00814842038508157 48.2849652470487 17.6048272026997 -0.0112628323490315 48.3006601896618 17.503514927008 -0.0124273360619701 48.3059101938724 17.4011286687247 -0.0128168659600275 48.3059101938724 17.4011286687247 -0.0222890457523305 48.2954615066628 17.5453822535301 -0.0222890457523305 48.2643335770308 17.6866243286721 -0.0222890457523305 48.2131762471347 17.8219062542627 -0.0222890457523305 48.1430575028658 17.9484038174636 -0.0222890457523305 48.055441178043 18.0634761921594 -0.0222890457523305 47.9521563946892 18.1647210701592 -0.0222890457523305 47.8353593773696 18.2500248129776 -0.0222890457523305 47.7074884387734 18.3176065772053 -0.0222890457523305 47.5712130762843 18.3660554922817 -0.0222890457523305 47.4293782422241 18.3943601145319 -0.0222890457523305 47.2849449512113 18.4019295425684 -0.0222890457523305 47.1409284645453 18.3886057532426 -0.0222890457523305 47.0003353421108 18.3546669006145 -0.0222890457523305 46.8661006759359 18.3008215090706 -0.0222890457523305 7.29547627333624 0.115300447399763 7.14381272551429 0.104841363194392 6.99214917769233 0.0938749711732652 6.84045037724506 0.0826503706086799 6.68874691173252 0.0714275429208025 6.53704826547606 0.0604649581047449 6.38536348483265 0.0500149738271794 6.2337003540273 0.0403178792326378 6.08206468513306 0.031596221886409 5.93045978692951 0.0240497420933718 5.77888616142073 0.0178508168060862 5.62734145627874 0.0131406290375524 5.47582067817887 0.0100262061332885 5.37335750960088 0.0088617445659577 5.27089434102288 0.008472179792303 5.27089434102288 -0.001 5.41550733618812 -0.001 5.56012033135336 -0.001 5.7047333265186 -0.001 5.84934632168384 -0.001 5.99395931684908 -0.001 6.13857231201432 -0.001 6.28318530717956 -0.001 6.4277983023448 -0.001 6.57241129751004 -0.001 6.71702429267527 -0.001 6.86163728784051 -0.001 7.00625028300575 -0.001 7.15086327817099 -0.001 7.29547627333624 -0.001 14 15 16 17 14 16 13 14 17 18 13 17 12 13 18 19 12 18 11 12 19 20 11 19 10 11 20 21 10 20 9 21 22 9 10 21 8 22 23 8 9 22 7 23 24 7 8 23 6 24 25 6 7 24 5 25 26 5 6 25 4 26 27 4 5 26 3 27 28 3 28 29 3 4 27 2 29 30 2 3 29 1 2 30 
4 2 1 1.91641346057409e-14
46.8661006759359 18.3008215090706 -0.0222890457523305 46.8661006759359 18.3008215090706 0.0940114016474321 27.3897250312568 8.80155840001018 -0.0222890457523305 27.3897250312568 8.80155840001018 1.53908274162235 -0.00333780582142396 -0.001 -0.00333780582143106 0.115300447399761 21.6661155298722 -0.001 21.6661155298722 1.56037178737468 3 2 1 4 2 3 
36 34 1 4.64159060266837e-14
46.8661006759359 18.3008215090706 0.0940114016474321 47.0234039153427 18.3617301548518 0.0823401129487967 47.1887011868325 18.3953602648248 0.0700756981539809 47.3572984860712 18.4007568330145 0.0575664341321889 47.5244080966841 18.3777666111895 0.0451675508216205 47.6852845487104 18.3270424607065 0.0332311436408782 47.8353593773696 18.2500248129776 0.0220961749124262 47.9703708553518 18.1489007650373 0.0120788482311665 48.0864850145756 18.0265419717835 0.0034636291205472 48.1804045207188 17.8864230985915 -0.00350483303423087 48.2494623087723 17.7325231500277 -0.0086286523802288 48.2916973206162 17.5692124766676 -0.0117623260304298 48.3059101938724 17.4011286687247 -0.0128168659600275 27.3897250312568 8.80155840001018 1.53908274162235 27.0765883466471 8.78493159744756 1.56231626600489 26.7668978330432 8.73570945207042 1.58529409789906 26.4640370669298 8.65442974881667 1.60776518908654 13.3863151689218 4.40055784306767 2.57808130188635 13.3863151689218 -4.40055784306767 2.57808130188635 26.4640370669298 -8.65442974881667 1.60776518908654 27.3897250312568 -8.80155840001018 1.53908274162235 27.0765883466471 -8.78493159744756 1.56231626600489 26.7668978330432 -8.73570945207042 1.58529409789906 46.8661006759359 -18.3008215090706 0.094011401647427 48.3059101938725 -17.4011286687248 -0.0128168659600316 48.2916973206163 -17.5692124766677 -0.0117623260304343 48.2494623087724 -17.7325231500278 -0.00862865238023298 48.1804045207189 -17.8864230985916 -0.00350483303423442 48.0864850145757 -18.0265419717836 0.00346362912054451 47.9703708553518 -18.1489007650374 0.0120788482311648 47.8353593773696 -18.2500248129778 0.0220961749124257 47.6852845487104 -18.3270424607066 0.0332311436408788 47.5244080966841 -18.3777666111896 0.0451675508216223 47.3572984860712 -18.4007568330146 0.0575664341321917 47.1887011868325 -18.3953602648249 0.0700756981539846 47.0234039153427 -18.3617301548518 0.0823401129488009 33.5718131900102 18.3008215090706 33.7295488172723 18.3617301548518 33.8953004502424 18.3953602648248 34.0643611819246 18.4007568330145 34.2319301356916 18.3777666111895 34.3932487974544 18.3270424607065 34.5437361448484 18.2500248129776 34.679118736125 18.1489007650373 34.7955520645691 18.0265419717835 34.8897297322987 17.8864230985915 34.9589773432 17.7325231500277 35.0013284486873 17.5692124766676 35.0155803896309 17.4011286687247 14.0419017864665 8.80155840001018 13.7279043662485 8.78493159744756 13.4173625897114 8.73570945207042 13.1136693339582 8.65442974881667 0 4.40055784306767 -3.5527136788005e-15 -4.40055784306768 13.1136693339582 -8.65442974881667 14.0419017864665 -8.80155840001018 13.7279043662485 -8.78493159744756 13.4173625897114 -8.73570945207042 33.5718131900102 -18.3008215090706 35.0155803896309 -17.4011286687248 35.0013284486874 -17.5692124766677 34.9589773432 -17.7325231500278 34.8897297322988 -17.8864230985916 34.7955520645692 -18.0265419717836 34.679118736125 -18.1489007650374 34.5437361448484 -18.2500248129778 34.3932487974544 -18.3270424607066 34.2319301356916 -18.3777666111896 34.0643611819246 -18.4007568330146 33.8953004502424 -18.3953602648249 33.7295488172723 -18.3617301548518 20 18 19 22 20 23 21 20 22 25 21 24 25 27 26 25 28 27 25 29 28 25 30 29 25 31 30 25 32 31 25 33 32 25 34 33 25 35 34 25 36 35 25 24 36 17 18 20 15 16 17 14 17 20 14 20 21 14 15 17 13 2 1 13 3 2 13 1 14 13 21 25 13 14 21 4 3 13 5 4 13 11 13 12 6 5 13 10 13 11 7 6 13 9 13 10 8 7 13 8 13 9 
8 6 1 0.00409992797699313
27.3897250312568 8.80155840001018 1.53908274162235 27.0765883466471 8.78493159744756 1.56231626600489 26.7668978330432 8.73570945207042 1.58529409789906 26.4640370669298 8.65442974881667 1.60776518908654 27.3897250312568 8.80155840001018 -0.0222890457523305 27.0765883466471 8.78493159744756 -0.0222890457523305 26.7668978330432 8.73570945207042 -0.0222890457523305 26.4640370669298 8.65442974881667 -0.0222890457523305 0.00076098441366886 1.56037178737468 0.105334558812847 1.58360531175514 0.209908133212025 1.60658314364752 0.314481707611204 1.62905423483887 0.000760984413668858 -0.001 0.105334558812847 -0.001 0.209908133212026 -0.001 0.314481707611204 -0.001 1 5 6 2 6 7 2 1 6 3 7 8 3 2 7 4 3 8 
11 9 1 1.18164453294601e-14
0.0791814786939335 0.0720637374139608 0.0172524757144896 0.0672141642350516 0.0681710546393214 0.00940477158254661 0.0635542378150852 0.066980567618996 -0.00443025693570074 0.0700756099013187 0.0691018148607491 -0.0171689688648237 0.0834392878443941 0.0734487014670617 -0.0222890457523305 11.0912497184769 3.65402763561698 2.41661963842585 13.3863151689218 4.40055784306767 2.57808130188635 12.3609615912208 4.06703471024238 2.58826206318357 11.7226638983293 3.85941165138919 2.52790098469759 26.4640370669298 8.65442974881667 1.60776518908654 26.4640370669298 8.65442974881667 -0.0222890457523305 27.7455872305082 0.0385415214668297 27.7581717286922 0.0306938173348771 27.762020406484 0.0168587888166298 27.7551627112627 0.00412007688750679 27.7411098357088 -0.001 16.1655996534136 2.43790868417817 13.7521720550667 2.59937034763867 14.8304056287575 2.6095511089359 15.5016218974207 2.54919003044992 0 1.62905423483887 4.44089209850063e-16 -0.001 7 10 11 6 8 7 6 9 8 6 7 11 5 6 11 1 5 4 1 6 5 2 4 3 2 1 4 
7 5 1 0.00663236798692502
11.0912497184769 3.65402763561698 2.41661963842585 0.0813103832691638 0.0727562194405112 -0.00251828501892045 13.3863151689218 4.40055784306767 2.57808130188635 12.3609615912208 4.06703471024238 2.58826206318357 11.7226638983293 3.85941165138919 2.52790098469759 26.4640370669298 8.65442974881667 1.60776518908654 26.4640370669298 8.65442974881667 -0.0222890457523305 16.1655996534136 2.43790868417817 27.7411098357088 -0.001 13.7521720550667 2.59937034763867 14.8304056287575 2.6095511089359 15.5016218974207 2.54919003044992 0 1.62905423483887 4.44089209850063e-16 -0.001 3 6 7 1 4 3 1 5 4 1 3 7 2 1 7 
8 6 1 0.0164458667709403
13.3863151689218 -4.40055784306767 2.57808130188635 13.3863151689218 4.40055784306767 2.57808130188635 12.3609615912208 4.06703471024238 2.58826206318357 11.7226638983293 3.85941165138919 2.52790098469759 11.0912497184769 3.65402763561698 2.41661963842585 11.0912497184769 -3.65402763561698 2.41661963842585 12.3609615912208 -4.06703471024238 2.58826206318357 11.7226638983293 -3.85941165138919 2.52790098469759 0.288592692116704 -4.40055784306767 0.288592692116704 4.40055784306767 0.160329273398166 4.06703471024676 0.0801646366990801 3.85941165139271 0 3.65402763561698 0 -3.65402763561696 0.160329273398166 -4.06703471024676 0.0801646366990801 -3.85941165139271 4 5 6 4 6 8 3 8 7 3 4 8 2 7 1 2 3 7 
11 9 1 1.18164453294601e-14
11.0912497184769 -3.65402763561698 2.41661963842585 0.0791814786939335 -0.0720637374139608 0.0172524757144896 13.3863151689218 -4.40055784306767 2.57808130188635 12.3609615912208 -4.06703471024238 2.58826206318357 11.7226638983293 -3.85941165138919 2.52790098469759 26.4640370669298 -8.65442974881667 1.60776518908654 26.4640370669298 -8.65442974881667 -0.0222890457523305 0.0834392878443941 -0.0734487014670617 -0.0222890457523305 0.0672141642350516 -0.0681710546393214 0.00940477158254661 0.0635542378150852 -0.066980567618996 -0.00443025693570074 0.0700756099013187 -0.0691018148607491 -0.0171689688648237 16.1655996534136 2.43790868417817 27.7455872305082 0.0385415214668208 13.7521720550667 2.59937034763867 14.8304056287575 2.6095511089359 15.5016218974207 2.54919003044992 0 1.62905423483887 4.44089209850063e-16 -0.001 27.7411098357088 -0.00100000000000038 27.7581717286922 0.0306938173348771 27.762020406484 0.0168587888166298 27.7551627112627 0.00412007688750679 3 6 7 1 4 3 1 5 4 1 3 7 8 1 7 2 8 11 2 1 8 9 11 10 9 2 11 
7 5 1 0.00663236798692502
11.0912497184769 -3.65402763561698 2.41661963842585 0.0813103832691638 -0.0727562194405112 -0.00251828501892045 13.3863151689218 -4.40055784306767 2.57808130188635 12.3609615912208 -4.06703471024238 2.58826206318357 11.7226638983293 -3.85941165138919 2.52790098469759 26.4640370669298 -8.65442974881667 1.60776518908654 26.4640370669298 -8.65442974881667 -0.0222890457523305 16.1655996534136 2.43790868417817 27.7411098357088 -0.001 13.7521720550667 2.59937034763867 14.8304056287575 2.6095511089359 15.5016218974207 2.54919003044992 0 1.62905423483887 4.44089209850063e-16 -0.001 3 6 7 1 4 3 1 5 4 1 3 7 2 1 7 
8 6 1 0.00409992797699313
27.3897250312568 -8.80155840001018 1.53908274162235 27.0765883466471 -8.78493159744756 1.56231626600489 26.7668978330432 -8.73570945207042 1.58529409789906 26.4640370669298 -8.65442974881667 1.60776518908654 26.4640370669298 -8.65442974881667 -0.0222890457523305 27.3897250312568 -8.80155840001018 -0.0222890457523305 27.0765883466471 -8.78493159744756 -0.0222890457523305 26.7668978330432 -8.73570945207042 -0.0222890457523305 0.00076098441366886 -1.56037178737468 0.105334558812847 -1.58360531175514 0.209908133212025 -1.60658314364752 0.314481707611204 -1.62905423483887 0.314481707611204 0.00099999999999989 0.00076098441366886 0.00099999999999989 0.105334558812847 0.00099999999999989 0.209908133212026 0.00099999999999989 7 1 2 7 6 1 8 2 3 8 7 2 5 3 4 5 8 3 
4 2 1 1.91435418426616e-14
27.3897250312568 -8.80155840001018 -0.0222890457523305 46.8661006759359 -18.3008215090706 -0.0222890457523305 27.3897250312568 -8.80155840001018 1.53908274162235 46.8661006759359 -18.3008215090706 0.094011401647427 21.6661155298722 -0.001 -0.00333780582142596 -0.001 21.6661155298722 1.56037178737468 -0.00333780582142596 0.115300447399757 1 4 2 3 4 1 
25 23 1 0.0035595471732376
48.3059101938725 -17.4011286687248 -0.0175529558561811 48.2916973206163 -17.5692124766677 -0.0117623260304343 48.2494623087724 -17.7325231500278 -0.00862865238023298 48.1804045207189 -17.8864230985916 -0.00350483303423442 48.0864850145757 -18.0265419717836 0.00346362912054451 47.9703708553518 -18.1489007650374 0.0120788482311648 47.8353593773696 -18.2500248129778 0.0220961749124257 47.6852845487104 -18.3270424607066 0.0332311436408788 47.5244080966841 -18.3777666111896 0.0451675508216223 47.3572984860712 -18.4007568330146 0.0575664341321917 47.1887011868325 -18.3953602648249 0.0700756981539846 47.0234039153427 -18.3617301548518 0.0823401129488009 46.8661006759359 -18.3008215090706 0.094011401647427 46.8661006759359 -18.3008215090706 -0.0222890457523305 47.0234039153427 -18.3617301548518 -0.0222890457523305 47.1887011868325 -18.3953602648249 -0.0222890457523305 47.3572984860712 -18.4007568330146 -0.0222890457523305 47.5244080966841 -18.3777666111896 -0.0222890457523305 47.6852845487104 -18.3270424607066 -0.0222890457523305 47.8353593773696 -18.2500248129778 -0.0222890457523305 47.9703708553518 -18.1489007650374 -0.0222890457523305 48.0864850145757 -18.0265419717836 -0.0222890457523305 48.1804045207189 -17.8864230985916 -0.0222890457523305 48.2494623087724 -17.7325231500278 -0.0222890457523305 48.2916973206163 -17.5692124766677 -0.0222890457523305 -1.0122909661567 0.001 -0.843575805130574 -0.0095267432001265 -0.674860644104448 -0.0126604067411891 -0.506145483078323 -0.017784225165878 -0.3374303220522 -0.0247526832599479 -0.168715161026071 -0.0333678965689248 4.2854608750531e-14 -0.0433852206647562 0.168715161026177 -0.0545201913534537 0.337430322052294 -0.066456599303229 0.506145483078415 -0.0788554805145448 0.674860644104537 -0.0913647413220465 0.843575805130661 -0.10362915068741 1.01229096615678 -0.115300447399757 1.01229096615679 0.001 0.843575805130664 0.001 0.67486064410454 0.001 0.506145483078416 0.001 0.337430322052293 0.001 0.168715161026169 0.001 4.52970994047064e-14 0.001 -0.168715161026078 0.001 -0.337430322052202 0.001 -0.506145483078326 0.001 -0.67486064410445 0.001 -0.843575805130573 0.001 25 1 2 24 2 3 24 25 2 23 3 4 23 24 3 22 4 5 22 23 4 21 5 6 21 22 5 20 6 7 20 21 6 19 7 8 19 20 7 18 8 9 18 19 8 17 9 10 17 18 9 16 10 11 16 17 10 15 11 12 15 16 11 14 12 13 14 15 12 
30 28 1 0.00261558903813976
46.8661006759359 -18.3008215090706 -0.0222890457523305 47.0003353421108 -18.3546669006146 -0.0222890457523305 47.1409284645453 -18.3886057532427 -0.0222890457523305 47.2849449512113 -18.4019295425685 -0.0222890457523305 47.4293782422241 -18.394360114532 -0.0222890457523305 47.5712130762843 -18.3660554922818 -0.0222890457523305 47.7074884387734 -18.3176065772054 -0.0222890457523305 47.8353593773696 -18.2500248129778 -0.0222890457523305 47.9521563946893 -18.1647210701593 -0.0222890457523305 48.055441178043 -18.0634761921596 -0.0222890457523305 48.1430575028659 -17.9484038174637 -0.0222890457523305 48.2131762471348 -17.8219062542629 -0.0222890457523305 48.2643335770309 -17.6866243286722 -0.0222890457523305 48.2954615066629 -17.5453822535302 -0.0222890457523305 48.3059101938725 -17.4011286687248 -0.0222890457523305 48.3059101938725 -17.4011286687248 -0.0128168659600316 48.2944452435163 -17.5521961553868 -0.0119662112244583 48.2603130199936 -17.6998031400808 -0.00943373296042618 48.2042872343036 -17.8405850819735 -0.00527683751554538 48.1276420643472 -17.9713157163726 0.000409936064518106 48.0321217322908 -18.0889981173787 0.00749717327732262 47.9199040368884 -18.1909283731137 0.0158232899235855 47.7935530986597 -18.274758516888 0.0251980382311944 47.6559625704982 -18.3385523876833 0.035406720407261 47.5102902044503 -18.3808327318254 0.0462150435286957 47.3598850840243 -18.400617919019 0.0573745186219149 47.2082092588931 -18.3974468554378 0.0686282750632028 47.0587558928589 -18.3713910353523 0.0797171336814025 46.9606154468495 -18.341055329254 0.0869987731613463 46.8661006759359 -18.3008215090706 0.094011401647427 1.01229096615678 0.001 0.867677970991538 0.001 0.723064975826289 0.001 0.57845198066104 0.001 0.43383898549579 0.001 0.289225990330541 0.001 0.144612995165292 0.001 4.2632564145606e-14 0.001 -0.144612995165207 0.001 -0.289225990330456 0.001 -0.433838985495705 0.001 -0.578451980660954 0.001 -0.723064975826204 0.001 -0.867677970991453 0.001 -1.0122909661567 0.001 -1.0122909661567 -0.0084721797923 -0.860795569203864 -0.00932288874954554 -0.70930017225103 -0.0118553259032806 -0.557786216494162 -0.0160122088434355 -0.406250650407304 -0.0216989926272741 -0.254687648646664 -0.0287862238925371 -0.103093890750018 -0.0371123374329739 0.0485311375787698 -0.0464870907858578 0.200185099311207 -0.0566957674464349 0.351863020554401 -0.0675040905995787 0.503557744618519 -0.0786635649721517 0.65526058415855 -0.0899173199644163 0.806962112163286 -0.101006182815623 0.909626539160033 -0.108287807207804 1.01229096615678 -0.115300447399757 14 15 16 14 16 17 13 17 18 13 14 17 12 18 19 12 13 18 11 19 20 11 12 19 10 20 21 10 11 20 9 21 22 9 10 21 8 22 23 8 9 22 7 23 24 7 8 23 6 24 25 6 7 24 5 25 26 5 6 25 4 26 27 4 5 26 3 27 28 3 4 27 2 28 29 2 3 28 1 29 30 1 2 29 
36 34 1 4.76646557423476e-14
27.3897250312568 8.80155840001018 -0.0222890457523305 46.8661006759359 18.3008215090706 -0.0222890457523305 27.0765883466471 8.78493159744756 -0.0222890457523305 26.7668978330432 8.73570945207042 -0.0222890457523305 26.4640370669298 8.65442974881667 -0.0222890457523305 0.0834392878443941 0.0734487014670617 -0.0222890457523305 0.0834392878443941 -0.0734487014670617 -0.0222890457523305 26.4640370669298 -8.65442974881667 -0.0222890457523305 27.3897250312568 -8.80155840001018 -0.0222890457523305 27.0765883466471 -8.78493159744756 -0.0222890457523305 26.7668978330432 -8.73570945207042 -0.0222890457523305 46.8661006759359 -18.3008215090706 -0.0222890457523305 47.0234039153427 -18.3617301548518 -0.0222890457523305 47.1887011868325 -18.3953602648249 -0.0222890457523305 47.3572984860712 -18.4007568330146 -0.0222890457523305 47.5244080966841 -18.3777666111896 -0.0222890457523305 47.6852845487104 -18.3270424607066 -0.0222890457523305 47.8353593773696 -18.2500248129778 -0.0222890457523305 47.9703708553518 -18.1489007650374 -0.0222890457523305 48.0864850145757 -18.0265419717836 -0.0222890457523305 48.1804045207189 -17.8864230985916 -0.0222890457523305 48.2494623087724 -17.7325231500278 -0.0222890457523305 48.2916973206163 -17.5692124766677 -0.0222890457523305 48.3059101938725 -17.4011286687248 -0.0222890457523305 48.3059101938724 17.4011286687247 -0.0222890457523305 48.2916973206162 17.5692124766676 -0.0222890457523305 48.2494623087723 17.7325231500277 -0.0222890457523305 48.1804045207188 17.8864230985915 -0.0222890457523305 48.0864850145756 18.0265419717835 -0.0222890457523305 47.9703708553518 18.1489007650373 -0.0222890457523305 47.8353593773696 18.2500248129776 -0.0222890457523305 47.6852845487104 18.3270424607065 -0.0222890457523305 47.5244080966841 18.3777666111895 -0.0222890457523305 47.3572984860712 18.4007568330145 -0.0222890457523305 47.1887011868326 18.3953602648248 -0.0222890457523305 47.0234039153427 18.3617301548518 -0.0222890457523305 3.309952337385 8.80155840001014 22.7863279820641 18.3008215090706 2.99681565277532 8.78493159744751 2.68712513917138 8.73570945207037 2.38426437305801 8.6544297488166 -23.9963334060274 0.0734487014670151 -23.9963334060274 -0.0734487014670897 2.384264373058 -8.65442974881672 3.30995233738502 -8.80155840001019 2.99681565277532 -8.7849315974476 2.68712513917138 -8.73570945207046 22.7863279820641 -18.3008215090707 22.9436312214709 -18.3617301548519 23.1089284929607 -18.395360264825 23.2775257921994 -18.4007568330146 23.4446354028123 -18.3777666111897 23.6055118548386 -18.3270424607067 23.7555866834978 -18.2500248129778 23.89059816148 -18.1489007650374 24.0067123207039 -18.0265419717837 24.1006318268471 -17.8864230985917 24.1696896149006 -17.7325231500279 24.2119246267445 -17.5692124766678 24.2261375000006 -17.4011286687248 24.2261375000005 17.4011286687246 24.2119246267444 17.5692124766675 24.1696896149005 17.7325231500276 24.100631826847 17.8864230985914 24.0067123207038 18.0265419717834 23.89059816148 18.1489007650372 23.7555866834978 18.2500248129776 23.6055118548386 18.3270424607064 23.4446354028123 18.3777666111895 23.2775257921994 18.4007568330144 23.1089284929608 18.3953602648248 22.9436312214709 18.3617301548517 9 11 10 9 8 11 16 13 14 16 14 15 19 16 17 19 17 18 20 16 19 22 20 21 22 16 20 23 16 22 24 9 12 24 12 13 24 13 16 24 16 23 5 6 7 5 7 8 5 8 9 3 4 5 1 5 9 1 3 5 25 2 1 25 9 24 25 1 9 33 34 35 28 25 26 28 26 27 28 2 25 31 32 33 31 35 36 31 33 35 29 2 28 30 31 36 30 2 29 30 36 2 
4 2 1 0.0132567000195357
11.0912497184769 -3.65402763561698 2.41661963842585 11.0912497184769 3.65402763561698 2.41661963842585 0.0813103832691638 0.0727562194405112 -0.00251828501892045 0.0813103832691638 -0.0727562194405112 -0.00251828501892045 11.4514699838585 -3.65402763561698 11.4514699838585 3.65402763561698 0.181039215731869 0.072063737413961 0.18103921573187 -0.0720637374139681 2 3 4 2 4 1 
4 2 1 8.80901326414245e-15
11.0912497184769 -3.65402763561698 2.41661963842585 11.0912497184769 3.65402763561698 2.41661963842585 0.0791814786939335 0.0720637374139608 0.0172524757144896 0.0791814786939335 -0.0720637374139608 0.0172524757144896 11.4514699838585 -3.65402763561698 11.4514699838585 3.65402763561698 0.181039215731869 0.072063737413961 0.18103921573187 -0.0720637374139681 2 3 4 2 4 1 

TShapes 78
Ve
1e-07
46.8661006759359 18.3008215090706 0.0940114016474321
0 0

0101101
*
Ve
0.00947227451410086
48.3059101938724 17.4011286687247 -0.017552955856179
0 0

0101101
*
Ed
 2.12677398043343e-07 1 1 0
1  1 0 4.25860337486624 6.28318530717959
2  1 1 0 4.25860337486624 6.28318530717959
4 C0 1 0 2 0
6  1 1 0
6  2 2 0
0

0101000
+78 0 -77 2 *
Ve
1e-07
46.8661006759359 18.3008215090706 -0.0222890457523305
0 0

0101101
*
Ed
 1e-07 1 1 0
1  2 0 5.27089434102288 7.29547627333624
2  2 1 0 5.27089434102288 7.29547627333624
4 C0 1 0 3 0
6  3 1 0
6  4 3 0
0

0101000
+77 2 -75 0 *
Ed
 1e-07 1 1 0
1  3 0 -0.001 0.115300447399763
2  3 1 0 -0.001 0.115300447399763
4 G1 1 0 4 0
6  5 4 0
6  6 1 0
6  7 5 0
0

0101000
+75 0 -78 0 *
Wi

0101100
+76 0 +74 0 +73 0 *
Fa
0  1e-07 1 0
2  1
0101000
+72 0 *
Ve
1e-07
27.3897250312568 8.80155840001018 1.53908274162235
0 0

0101101
*
Ed
 1e-07 1 1 0
1  4 0 -2.62235230800811 19.0952313293449
4 C0 2 0 4 0
6  8 6 0
6  9 2 0
6  10 5 0
0

0101000
+70 0 -78 0 *
Ve
1e-07
26.4640370669298 8.65442974881667 1.60776518908654
0 0

0101101
*
Ed
 1e-07 1 1 0
1  5 0 4.71314996479836 5.02687068799589
2  4 5 0 4.71314996479836 5.02687068799589
4 C0 2 0 5 0
6  11 6 0
6  12 7 0
6  13 2 0
0

0101000
+70 0 -68 0 *
Ve
1e-07
13.3863151689218 4.40055784306767 2.57808130188635
0 0

0101101
*
Ed
 1e-07 1 1 0
1  6 0 -7.51476264888157 6.2715983499795
4 C0 2 0 6 0
6  14 6 0
6  15 8 0
6  16 2 0
6  17 9 0
0

0101000
+68 0 -66 0 *
Ve
1e-07
13.3863151689218 -4.40055784306767 2.57808130188635
0 0

0101101
*
Ed
 1e-07 1 1 0
1  7 0 -4.40055784306767 4.40055784306767
2  5 7 0 -4.40055784306767 4.40055784306767
4 G1 2 0 7 0
6  18 6 0
6  19 10 0
6  20 2 0
0

0101000
+64 0 -66 0 *
Ve
1e-07
26.4640370669298 -8.65442974881667 1.60776518908654
0 0

0101101
*
Ed
 1e-07 1 1 0
1  8 0 -7.51476264888157 6.2715983499795
4 C0 2 0 8 0
6  21 6 0
6  22 11 0
6  23 2 0
6  24 12 0
0

0101000
+62 0 -64 0 *
Ve
1e-07
27.3897250312568 -8.80155840001018 1.53908274162235
0 0

0101101
*
Ed
 1e-07 1 1 0
1  9 0 4.71314996479836 5.02687068799589
2  6 9 0 4.71314996479836 5.02687068799589
4 C0 2 0 9 0
6  25 6 0
6  26 13 0
6  27 2 0
0

0101000
+60 0 -62 0 *
Ve
1e-07
46.8661006759359 -18.3008215090706 0.094011401647427
0 0

0101101
*
Ed
 1e-07 1 1 0
1  10 0 -2.62235230800811 19.0952313293449
4 C0 2 0 10 0
6  28 6 0
6  29 2 0
6  30 14 0
0

0101000
+60 0 -58 0 *
Ve
0.00947227451410086
48.3059101938725 -17.4011286687248 -0.0175529558561811
0 0

0101101
*
Ed
 2.12677398032935e-07 1 1 0
1  11 0 0 2.02458193231349
2  7 11 0 0 2.02458193231349
4 C0 2 0 11 0
6  31 15 0
6  32 2 0
0

0101000
+56 2 -58 0 *
Ed
 0.00947227451410086 1 1 0
1  12 0 -26.1009614042046 8.70129593324491
6  33 2 1
6  34 3 1
0

0101000
+77 0 -56 0 *
Wi

0101100
-76 1 -69 1 +67 1 +65 1 -63 1 -61 1 -59 1 +57 1 -55 1 -54 0 
*
Fa
0  1e-07 2 0
2  2
0101000
+53 2 *
Ve
1e-07
46.8661006759359 -18.3008215090706 -0.0222890457523305
0 0

0101101
*
Ed
 1e-07 1 1 0
1  13 0 5.2708943410228 7.29547627333629
2  8 11 0 5.2708943410228 7.29547627333629
4 C0 11 0 3 0
6  35 15 0
6  36 3 0
0

0101000
+51 0 -56 2 *
Ed
 1e-07 1 1 0
1  14 0 -0.115300447399757 0.001
2  9 11 0 -0.115300447399757 0.001
4 G1 11 0 10 0
6  37 16 0
6  38 15 0
6  39 14 0
0

0101000
+58 0 -51 0 *
Wi

0101100
+50 0 +55 0 +49 0 *
Fa
0  1e-07 11 0
2  15
0101000
+48 0 *
Ve
1e-07
27.3897250312568 -8.80155840001018 -0.0222890457523305
0 0

0101101
*
Ed
 1e-07 1 1 0
1  15 0 -1.56037178737468 0.001
2  10 9 0 -1.56037178737468 0.001
4 C0 10 0 9 0
6  40 13 0
6  41 14 0
0

0101000
+60 0 -46 0 *
Ed
 1e-07 1 1 0
1  16 0 -7.41640041307655 14.2530529226171
4 C0 10 0 3 0
6  42 17 0
6  43 14 0
6  44 3 0
0

0101000
+46 0 -51 0 *
Wi

0101100
-49 0 -57 0 +45 0 +44 0 *
Fa
0  1e-07 10 0
2  14
0101000
-43 0 *
Ve
1e-07
27.3897250312568 8.80155840001018 -0.0222890457523305
0 0

0101101
*
Ed
 1e-07 1 1 0
1  17 0 -7.41640041307655 14.2530529226171
4 C0 4 0 3 0
6  45 17 0
6  46 5 0
6  47 3 0
0

0101000
+41 0 -75 0 *
Ed
 1e-07 1 1 0
1  18 0 -1.56037178737468 0.001
2  11 5 0 -1.56037178737468 0.001
4 C0 4 0 5 0
6  48 7 0
6  49 5 0
0

0101000
+70 0 -41 0 *
Wi

0101100
-73 0 -40 0 -39 0 +69 0 *
Fa
0  1e-07 4 0
2  5
0101000
+38 0 *
Ve
1e-07
26.4640370669298 8.65442974881667 -0.0222890457523305
0 0

0101101
*
Ed
 1e-07 1 1 0
1  19 0 0.00076098441366886 0.314481707611204
2  12 5 0 0.00076098441366886 0.314481707611204
4 C0 3 0 5 0
6  50 17 0
6  51 7 0
6  52 3 0
0

0101000
+41 0 -36 0 *
Ve
0.0397942079215195
0.0813103832691638 0.0727562194405112 -0.00251828501892045
0 0

0101101
*
Ed
 1e-07 1 1 0
1  20 0 -2.47217609329929 25.2689337424095
4 C0 3 0 6 0
6  53 3 0
6  54 9 0
0

0101000
+36 0 -34 2 *
Ve
0.0397942079215195
0.0813103832691638 -0.0727562194405112 -0.00251828501892045
0 0

0101101
*
Ed
 0.0397942079215195 1 1 0
1  21 0 -0.0720637374139834 0.0720637374139382
6  55 3 1
6  56 18 1
0

0101000
+34 0 -32 0 *
Ve
1e-07
26.4640370669298 -8.65442974881667 -0.0222890457523305
0 0

0101101
*
Ed
 1e-07 1 1 0
1  22 0 -2.47217609329929 25.2689337424095
4 C0 3 0 8 0
6  57 3 0
6  58 12 0
0

0101000
+30 0 -32 2 *
Ed
 1e-07 1 1 0
1  23 0 0.00076098441366886 0.314481707611204
2  13 9 0 0.00076098441366886 0.314481707611204
4 C0 3 0 9 0
6  59 17 0
6  60 13 0
6  61 3 0
0

0101000
+46 0 -30 0 *
Wi

0101100
-40 1 +35 1 +33 1 +31 0 -29 1 -28 1 +44 1 +50 1 -54 0 +74 1 
*
Fa
0  1e-07 3 0
2  3
0101000
+27 2 *
Ed
 1e-07 1 1 0
1  24 0 -0.001 1.62905423483887
2  14 9 0 -0.001 1.62905423483887
4 G1 8 0 9 0
6  62 11 0
6  63 13 0
6  64 12 0
0

0101000
+30 0 -62 0 *
Ve
1e-07
11.0912497184769 -3.65402763561698 2.41661963842585
0 0

0101101
*
Ed
 1e-07 1 1 0
1  25 0 4.63832857230158 4.92692126441829
2  15 7 0 4.63832857230158 4.92692126441829
4 C0 8 0 7 0
6  65 11 0
6  66 10 0
6  67 12 0
0

0101000
+64 0 -24 0 *
Ed
 1e-07 1 1 0
1  26 0 1.65722047571418 13.483169700498
4 C0 8 0 12 0
6  68 12 0
6  69 18 0
0

0101000
+24 0 -32 2 *
Wi

0101100
-29 0 +25 0 +61 0 +23 0 +22 0 *
Fa
0  1e-07 8 0
2  12
0101000
-21 0 *
Wi

0101100
+59 0 -25 0 -28 0 -45 0 *
Fa
0  1e-07 9 0
2  13
0101000
+19 0 *
Ve
1e-07
11.0912497184769 3.65402763561698 2.41661963842585
0 0

0101101
*
Ed
 1e-07 1 1 0
1  27 0 -3.65402763561698 3.65402763561698
2  16 7 0 -3.65402763561698 3.65402763561698
4 G1 12 0 7 0
6  70 19 0
6  71 10 0
6  72 18 0
0

0101000
+24 0 -17 0 *
Ed
 1e-07 1 1 0
1  28 0 1.65722047571418 13.483169700498
4 C0 12 0 6 0
6  73 18 0
6  74 9 0
0

0101000
+17 0 -34 2 *
Wi

0101100
+16 0 +15 0 +31 2 -22 0 *
Fa
0  1e-07 12 0
2  18
0101000
+14 0 *
Ed
 1e-07 1 1 0
1  29 0 4.63832857230158 4.92692126441829
2  17 7 0 4.63832857230158 4.92692126441829
4 C0 7 0 6 0
6  75 8 0
6  76 10 0
6  77 9 0
0

0101000
+66 0 -17 0 *
Wi

0101100
+63 0 +12 0 -16 0 -23 0 *
Fa
0  1e-07 7 0
2  10
0101000
+11 0 *
Ed
 1e-07 1 1 0
1  30 0 -0.001 1.62905423483887
2  18 5 0 -0.001 1.62905423483887
4 G1 6 0 5 0
6  78 8 0
6  79 7 0
6  80 9 0
0

0101000
+36 0 -68 0 *
Wi

0101100
-15 0 -12 0 -65 0 -9 0 +33 0 *
Fa
0  1e-07 6 0
2  9
0101000
+8 0 *
Wi

0101100
-67 0 +39 0 +35 0 +9 0 *
Fa
0  1e-07 5 0
2  7
0101000
+6 0 *
Sh

0101100
+71 0 +52 0 +47 0 -42 0 +37 0 -26 0 -20 0 +18 0 +13 0 +10 0 
+7 0 +5 0 *
So

0100000
+4 0 *
Co

0100000
+3 1 *
Co

1100000
+2 0 *

+1 0 