ISO-10303-21;
HEADER;
/* Generated by software containing ST-Developer
 * from STEP Tools, Inc. (www.steptools.com) 
 */

FILE_DESCRIPTION(
/* description */ (''),
/* implementation_level */ '2;1');

FILE_NAME(
/* name */ 'Design_without_cavity_v1_20260806.step',
/* time_stamp */ '2026-08-06T22:28:40+05:30',
/* author */ (''),
/* organization */ (''),
/* preprocessor_version */ 'ST-DEVELOPER v20.1',
/* originating_system */ 'Autodesk Translation Framework v15.8.0.0',
/* authorisation */ '');

FILE_SCHEMA (('AUTOMOTIVE_DESIGN { 1 0 10303 214 3 1 1 }'));
ENDSEC;

DATA;
#10=MECHANICAL_DESIGN_GEOMETRIC_PRESENTATION_REPRESENTATION('',(#17),#508);
#11=SHAPE_REPRESENTATION_RELATIONSHIP('SRR','None',#517,#12);
#12=ADVANCED_BREP_SHAPE_REPRESENTATION('',(#18),#506);
#13=ITEM_DEFINED_TRANSFORMATION($,$,#300,#330);
#14=(
REPRESENTATION_RELATIONSHIP($,$,#518,#517)
REPRESENTATION_RELATIONSHIP_WITH_TRANSFORMATION(#13)
SHAPE_REPRESENTATION_RELATIONSHIP()
);
#15=CONTEXT_DEPENDENT_SHAPE_REPRESENTATION(#14,#516);
#16=NEXT_ASSEMBLY_USAGE_OCCURRENCE('Spaceplane:1','Spaceplane:1',
'Spaceplane:1',#520,#521,'Spaceplane:1');
#17=STYLED_ITEM('',(#532),#18);
#18=MANIFOLD_SOLID_BREP('Body1',#286);
#19=PLANE('',#304);
#20=PLANE('',#308);
#21=PLANE('',#310);
#22=PLANE('',#311);
#23=PLANE('',#320);
#24=PLANE('',#323);
#25=PLANE('',#326);
#26=PLANE('',#327);
#27=FACE_OUTER_BOUND('',#42,.T.);
#28=FACE_OUTER_BOUND('',#43,.T.);
#29=FACE_OUTER_BOUND('',#44,.T.);
#30=FACE_OUTER_BOUND('',#45,.T.);
#31=FACE_OUTER_BOUND('',#46,.T.);
#32=FACE_OUTER_BOUND('',#47,.T.);
#33=FACE_OUTER_BOUND('',#48,.T.);
#34=FACE_OUTER_BOUND('',#49,.T.);
#35=FACE_OUTER_BOUND('',#50,.T.);
#36=FACE_OUTER_BOUND('',#51,.T.);
#37=FACE_OUTER_BOUND('',#52,.T.);
#38=FACE_OUTER_BOUND('',#53,.T.);
#39=FACE_OUTER_BOUND('',#54,.T.);
#40=FACE_OUTER_BOUND('',#55,.T.);
#41=FACE_OUTER_BOUND('',#56,.T.);
#42=EDGE_LOOP('',(#186,#187,#188,#189));
#43=EDGE_LOOP('',(#190,#191,#192,#193));
#44=EDGE_LOOP('',(#194,#195,#196,#197));
#45=EDGE_LOOP('',(#198,#199,#200,#201,#202,#203));
#46=EDGE_LOOP('',(#204,#205,#206,#207));
#47=EDGE_LOOP('',(#208,#209,#210,#211,#212,#213,#214,#215,#216,#217,#218));
#48=EDGE_LOOP('',(#219,#220,#221,#222));
#49=EDGE_LOOP('',(#223,#224,#225,#226));
#50=EDGE_LOOP('',(#227,#228,#229,#230));
#51=EDGE_LOOP('',(#231,#232,#233,#234));
#52=EDGE_LOOP('',(#235,#236,#237,#238));
#53=EDGE_LOOP('',(#239,#240,#241,#242));
#54=EDGE_LOOP('',(#243,#244,#245,#246,#247,#248));
#55=EDGE_LOOP('',(#249,#250,#251,#252,#253,#254,#255,#256,#257,#258,#259));
#56=EDGE_LOOP('',(#260,#261,#262,#263));
#57=ELLIPSE('',#303,6.51786689879926,6.5);
#58=ELLIPSE('',#306,0.0210314489974916,0.02);
#59=ELLIPSE('',#307,0.0210314489974916,0.02);
#60=ELLIPSE('',#309,8.41257959899665,8.);
#61=ELLIPSE('',#312,3.00824626103538,3.00000000005096);
#62=ELLIPSE('',#313,1.00274875366098,0.999999999999561);
#63=ELLIPSE('',#314,1.00274875366187,1.00000000000045);
#64=ELLIPSE('',#315,3.00824626103538,3.00000000005096);
#65=ELLIPSE('',#317,8.41257959899665,8.);
#66=LINE('',#427,#91);
#67=LINE('',#430,#92);
#68=LINE('',#433,#93);
#69=LINE('',#435,#94);
#70=LINE('',#436,#95);
#71=LINE('',#442,#96);
#72=LINE('',#445,#97);
#73=LINE('',#448,#98);
#74=LINE('',#452,#99);
#75=LINE('',#454,#100);
#76=LINE('',#455,#101);
#77=LINE('',#458,#102);
#78=LINE('',#459,#103);
#79=LINE('',#462,#104);
#80=LINE('',#464,#105);
#81=LINE('',#469,#106);
#82=LINE('',#473,#107);
#83=LINE('',#479,#108);
#84=LINE('',#483,#109);
#85=LINE('',#484,#110);
#86=LINE('',#487,#111);
#87=LINE('',#491,#112);
#88=LINE('',#492,#113);
#89=LINE('',#495,#114);
#90=LINE('',#498,#115);
#91=VECTOR('',#339,0.01);
#92=VECTOR('',#342,0.01);
#93=VECTOR('',#345,0.01);
#94=VECTOR('',#346,0.01);
#95=VECTOR('',#347,0.01);
#96=VECTOR('',#352,0.01);
#97=VECTOR('',#355,0.01);
#98=VECTOR('',#358,0.01);
#99=VECTOR('',#361,0.01);
#100=VECTOR('',#362,0.01);
#101=VECTOR('',#363,0.01);
#102=VECTOR('',#366,0.01);
#103=VECTOR('',#367,0.01);
#104=VECTOR('',#370,0.01);
#105=VECTOR('',#371,0.01);
#106=VECTOR('',#376,0.01);
#107=VECTOR('',#379,0.01);
#108=VECTOR('',#388,0.01);
#109=VECTOR('',#393,0.01);
#110=VECTOR('',#394,0.01);
#111=VECTOR('',#397,0.01);
#112=VECTOR('',#402,0.01);
#113=VECTOR('',#403,0.01);
#114=VECTOR('',#406,0.01);
#115=VECTOR('',#411,0.01);
#116=CIRCLE('',#302,6.5);
#117=CIRCLE('',#319,3.00000000005096);
#118=CIRCLE('',#322,1.00000000000045);
#119=CIRCLE('',#325,3.00000000005096);
#120=CIRCLE('',#328,0.999999999999561);
#121=VERTEX_POINT('',#423);
#122=VERTEX_POINT('',#424);
#123=VERTEX_POINT('',#426);
#124=VERTEX_POINT('',#428);
#125=VERTEX_POINT('',#432);
#126=VERTEX_POINT('',#434);
#127=VERTEX_POINT('',#438);
#128=VERTEX_POINT('',#439);
#129=VERTEX_POINT('',#441);
#130=VERTEX_POINT('',#443);
#131=VERTEX_POINT('',#447);
#132=VERTEX_POINT('',#449);
#133=VERTEX_POINT('',#451);
#134=VERTEX_POINT('',#453);
#135=VERTEX_POINT('',#457);
#136=VERTEX_POINT('',#461);
#137=VERTEX_POINT('',#463);
#138=VERTEX_POINT('',#466);
#139=VERTEX_POINT('',#468);
#140=VERTEX_POINT('',#470);
#141=VERTEX_POINT('',#472);
#142=VERTEX_POINT('',#478);
#143=VERTEX_POINT('',#482);
#144=VERTEX_POINT('',#486);
#145=VERTEX_POINT('',#490);
#146=VERTEX_POINT('',#494);
#147=EDGE_CURVE('',#121,#122,#116,.T.);
#148=EDGE_CURVE('',#122,#123,#66,.T.);
#149=EDGE_CURVE('',#123,#124,#57,.T.);
#150=EDGE_CURVE('',#124,#121,#67,.T.);
#151=EDGE_CURVE('',#122,#125,#68,.T.);
#152=EDGE_CURVE('',#125,#126,#69,.T.);
#153=EDGE_CURVE('',#123,#126,#70,.T.);
#154=EDGE_CURVE('',#127,#128,#58,.T.);
#155=EDGE_CURVE('',#128,#129,#71,.T.);
#156=EDGE_CURVE('',#129,#130,#59,.T.);
#157=EDGE_CURVE('',#130,#127,#72,.T.);
#158=EDGE_CURVE('',#131,#129,#73,.T.);
#159=EDGE_CURVE('',#132,#131,#60,.T.);
#160=EDGE_CURVE('',#133,#132,#74,.T.);
#161=EDGE_CURVE('',#134,#133,#75,.T.);
#162=EDGE_CURVE('',#130,#134,#76,.T.);
#163=EDGE_CURVE('',#128,#135,#77,.T.);
#164=EDGE_CURVE('',#135,#131,#78,.T.);
#165=EDGE_CURVE('',#136,#132,#79,.T.);
#166=EDGE_CURVE('',#136,#137,#80,.T.);
#167=EDGE_CURVE('',#137,#124,#61,.T.);
#168=EDGE_CURVE('',#126,#138,#62,.T.);
#169=EDGE_CURVE('',#138,#139,#81,.T.);
#170=EDGE_CURVE('',#139,#140,#63,.T.);
#171=EDGE_CURVE('',#140,#141,#82,.T.);
#172=EDGE_CURVE('',#141,#133,#64,.T.);
#173=EDGE_CURVE('',#135,#136,#65,.T.);
#174=EDGE_CURVE('',#142,#141,#83,.T.);
#175=EDGE_CURVE('',#142,#134,#117,.T.);
#176=EDGE_CURVE('',#143,#140,#84,.T.);
#177=EDGE_CURVE('',#142,#143,#85,.T.);
#178=EDGE_CURVE('',#144,#139,#86,.T.);
#179=EDGE_CURVE('',#144,#143,#118,.T.);
#180=EDGE_CURVE('',#145,#138,#87,.T.);
#181=EDGE_CURVE('',#144,#145,#88,.T.);
#182=EDGE_CURVE('',#146,#137,#89,.T.);
#183=EDGE_CURVE('',#121,#146,#119,.T.);
#184=EDGE_CURVE('',#127,#146,#90,.T.);
#185=EDGE_CURVE('',#125,#145,#120,.T.);
#186=ORIENTED_EDGE('',*,*,#147,.T.);
#187=ORIENTED_EDGE('',*,*,#148,.T.);
#188=ORIENTED_EDGE('',*,*,#149,.T.);
#189=ORIENTED_EDGE('',*,*,#150,.T.);
#190=ORIENTED_EDGE('',*,*,#148,.F.);
#191=ORIENTED_EDGE('',*,*,#151,.T.);
#192=ORIENTED_EDGE('',*,*,#152,.T.);
#193=ORIENTED_EDGE('',*,*,#153,.F.);
#194=ORIENTED_EDGE('',*,*,#154,.T.);
#195=ORIENTED_EDGE('',*,*,#155,.T.);
#196=ORIENTED_EDGE('',*,*,#156,.T.);
#197=ORIENTED_EDGE('',*,*,#157,.T.);
#198=ORIENTED_EDGE('',*,*,#156,.F.);
#199=ORIENTED_EDGE('',*,*,#158,.F.);
#200=ORIENTED_EDGE('',*,*,#159,.F.);
#201=ORIENTED_EDGE('',*,*,#160,.F.);
#202=ORIENTED_EDGE('',*,*,#161,.F.);
#203=ORIENTED_EDGE('',*,*,#162,.F.);
#204=ORIENTED_EDGE('',*,*,#155,.F.);
#205=ORIENTED_EDGE('',*,*,#163,.T.);
#206=ORIENTED_EDGE('',*,*,#164,.T.);
#207=ORIENTED_EDGE('',*,*,#158,.T.);
#208=ORIENTED_EDGE('',*,*,#160,.T.);
#209=ORIENTED_EDGE('',*,*,#165,.F.);
#210=ORIENTED_EDGE('',*,*,#166,.T.);
#211=ORIENTED_EDGE('',*,*,#167,.T.);
#212=ORIENTED_EDGE('',*,*,#149,.F.);
#213=ORIENTED_EDGE('',*,*,#153,.T.);
#214=ORIENTED_EDGE('',*,*,#168,.T.);
#215=ORIENTED_EDGE('',*,*,#169,.T.);
#216=ORIENTED_EDGE('',*,*,#170,.T.);
#217=ORIENTED_EDGE('',*,*,#171,.T.);
#218=ORIENTED_EDGE('',*,*,#172,.T.);
#219=ORIENTED_EDGE('',*,*,#159,.T.);
#220=ORIENTED_EDGE('',*,*,#164,.F.);
#221=ORIENTED_EDGE('',*,*,#173,.T.);
#222=ORIENTED_EDGE('',*,*,#165,.T.);
#223=ORIENTED_EDGE('',*,*,#172,.F.);
#224=ORIENTED_EDGE('',*,*,#174,.F.);
#225=ORIENTED_EDGE('',*,*,#175,.T.);
#226=ORIENTED_EDGE('',*,*,#161,.T.);
#227=ORIENTED_EDGE('',*,*,#171,.F.);
#228=ORIENTED_EDGE('',*,*,#176,.F.);
#229=ORIENTED_EDGE('',*,*,#177,.F.);
#230=ORIENTED_EDGE('',*,*,#174,.T.);
#231=ORIENTED_EDGE('',*,*,#170,.F.);
#232=ORIENTED_EDGE('',*,*,#178,.F.);
#233=ORIENTED_EDGE('',*,*,#179,.T.);
#234=ORIENTED_EDGE('',*,*,#176,.T.);
#235=ORIENTED_EDGE('',*,*,#169,.F.);
#236=ORIENTED_EDGE('',*,*,#180,.F.);
#237=ORIENTED_EDGE('',*,*,#181,.F.);
#238=ORIENTED_EDGE('',*,*,#178,.T.);
#239=ORIENTED_EDGE('',*,*,#150,.F.);
#240=ORIENTED_EDGE('',*,*,#167,.F.);
#241=ORIENTED_EDGE('',*,*,#182,.F.);
#242=ORIENTED_EDGE('',*,*,#183,.F.);
#243=ORIENTED_EDGE('',*,*,#154,.F.);
#244=ORIENTED_EDGE('',*,*,#184,.T.);
#245=ORIENTED_EDGE('',*,*,#182,.T.);
#246=ORIENTED_EDGE('',*,*,#166,.F.);
#247=ORIENTED_EDGE('',*,*,#173,.F.);
#248=ORIENTED_EDGE('',*,*,#163,.F.);
#249=ORIENTED_EDGE('',*,*,#157,.F.);
#250=ORIENTED_EDGE('',*,*,#162,.T.);
#251=ORIENTED_EDGE('',*,*,#175,.F.);
#252=ORIENTED_EDGE('',*,*,#177,.T.);
#253=ORIENTED_EDGE('',*,*,#179,.F.);
#254=ORIENTED_EDGE('',*,*,#181,.T.);
#255=ORIENTED_EDGE('',*,*,#185,.F.);
#256=ORIENTED_EDGE('',*,*,#151,.F.);
#257=ORIENTED_EDGE('',*,*,#147,.F.);
#258=ORIENTED_EDGE('',*,*,#183,.T.);
#259=ORIENTED_EDGE('',*,*,#184,.F.);
#260=ORIENTED_EDGE('',*,*,#168,.F.);
#261=ORIENTED_EDGE('',*,*,#152,.F.);
#262=ORIENTED_EDGE('',*,*,#185,.T.);
#263=ORIENTED_EDGE('',*,*,#180,.T.);
#264=CYLINDRICAL_SURFACE('',#301,6.5);
#265=CYLINDRICAL_SURFACE('',#305,0.02);
#266=CYLINDRICAL_SURFACE('',#316,8.);
#267=CYLINDRICAL_SURFACE('',#318,3.00000000005096);
#268=CYLINDRICAL_SURFACE('',#321,1.00000000000045);
#269=CYLINDRICAL_SURFACE('',#324,3.00000000005096);
#270=CYLINDRICAL_SURFACE('',#329,0.999999999999561);
#271=ADVANCED_FACE('',(#27),#264,.F.);
#272=ADVANCED_FACE('',(#28),#19,.T.);
#273=ADVANCED_FACE('',(#29),#265,.T.);
#274=ADVANCED_FACE('',(#30),#20,.T.);
#275=ADVANCED_FACE('',(#31),#21,.T.);
#276=ADVANCED_FACE('',(#32),#22,.T.);
#277=ADVANCED_FACE('',(#33),#266,.T.);
#278=ADVANCED_FACE('',(#34),#267,.T.);
#279=ADVANCED_FACE('',(#35),#23,.T.);
#280=ADVANCED_FACE('',(#36),#268,.T.);
#281=ADVANCED_FACE('',(#37),#24,.T.);
#282=ADVANCED_FACE('',(#38),#269,.T.);
#283=ADVANCED_FACE('',(#39),#25,.T.);
#284=ADVANCED_FACE('',(#40),#26,.F.);
#285=ADVANCED_FACE('',(#41),#270,.T.);
#286=CLOSED_SHELL('',(#271,#272,#273,#274,#275,#276,#277,#278,#279,#280,
#281,#282,#283,#284,#285));
#287=DERIVED_UNIT_ELEMENT(#289,1.);
#288=DERIVED_UNIT_ELEMENT(#509,-3.);
#289=(
MASS_UNIT()
NAMED_UNIT(*)
SI_UNIT(.KILO.,.GRAM.)
);
#290=DERIVED_UNIT((#287,#288));
#291=MEASURE_REPRESENTATION_ITEM('density measure',
POSITIVE_RATIO_MEASURE(7850.),#290);
#292=PROPERTY_DEFINITION_REPRESENTATION(#297,#294);
#293=PROPERTY_DEFINITION_REPRESENTATION(#298,#295);
#294=REPRESENTATION('material name',(#296),#507);
#295=REPRESENTATION('density',(#291),#507);
#296=DESCRIPTIVE_REPRESENTATION_ITEM('Steel','Steel');
#297=PROPERTY_DEFINITION('material property','material name',#521);
#298=PROPERTY_DEFINITION('material property','density of part',#521);
#299=AXIS2_PLACEMENT_3D('',#420,#331,#332);
#300=AXIS2_PLACEMENT_3D('',#421,#333,#334);
#301=AXIS2_PLACEMENT_3D('',#422,#335,#336);
#302=AXIS2_PLACEMENT_3D('',#425,#337,#338);
#303=AXIS2_PLACEMENT_3D('',#429,#340,#341);
#304=AXIS2_PLACEMENT_3D('',#431,#343,#344);
#305=AXIS2_PLACEMENT_3D('',#437,#348,#349);
#306=AXIS2_PLACEMENT_3D('',#440,#350,#351);
#307=AXIS2_PLACEMENT_3D('',#444,#353,#354);
#308=AXIS2_PLACEMENT_3D('',#446,#356,#357);
#309=AXIS2_PLACEMENT_3D('',#450,#359,#360);
#310=AXIS2_PLACEMENT_3D('',#456,#364,#365);
#311=AXIS2_PLACEMENT_3D('',#460,#368,#369);
#312=AXIS2_PLACEMENT_3D('',#465,#372,#373);
#313=AXIS2_PLACEMENT_3D('',#467,#374,#375);
#314=AXIS2_PLACEMENT_3D('',#471,#377,#378);
#315=AXIS2_PLACEMENT_3D('',#474,#380,#381);
#316=AXIS2_PLACEMENT_3D('',#475,#382,#383);
#317=AXIS2_PLACEMENT_3D('',#476,#384,#385);
#318=AXIS2_PLACEMENT_3D('',#477,#386,#387);
#319=AXIS2_PLACEMENT_3D('',#480,#389,#390);
#320=AXIS2_PLACEMENT_3D('',#481,#391,#392);
#321=AXIS2_PLACEMENT_3D('',#485,#395,#396);
#322=AXIS2_PLACEMENT_3D('',#488,#398,#399);
#323=AXIS2_PLACEMENT_3D('',#489,#400,#401);
#324=AXIS2_PLACEMENT_3D('',#493,#404,#405);
#325=AXIS2_PLACEMENT_3D('',#496,#407,#408);
#326=AXIS2_PLACEMENT_3D('',#497,#409,#410);
#327=AXIS2_PLACEMENT_3D('',#499,#412,#413);
#328=AXIS2_PLACEMENT_3D('',#500,#414,#415);
#329=AXIS2_PLACEMENT_3D('',#501,#416,#417);
#330=AXIS2_PLACEMENT_3D('',#502,#418,#419);
#331=DIRECTION('axis',(0.,0.,1.));
#332=DIRECTION('refdir',(1.,0.,0.));
#333=DIRECTION('axis',(0.,0.,1.));
#334=DIRECTION('refdir',(1.,0.,0.));
#335=DIRECTION('center_axis',(0.,0.,1.));
#336=DIRECTION('ref_axis',(0.32123650541942,0.946999000836811,0.));
#337=DIRECTION('center_axis',(0.,0.,-1.));
#338=DIRECTION('ref_axis',(0.32123650541942,0.946999000836811,0.));
#339=DIRECTION('',(0.,0.,1.));
#340=DIRECTION('center_axis',(0.0739927237822856,0.,0.997258781273586));
#341=DIRECTION('ref_axis',(0.997258781273586,-2.87798577591733E-15,-0.0739927237822856));
#342=DIRECTION('',(0.,0.,-1.));
#343=DIRECTION('center_axis',(-0.438371146789078,-0.898794046299167,0.));
#344=DIRECTION('ref_axis',(0.898794046299167,-0.438371146789078,5.35465549852755E-17));
#345=DIRECTION('',(0.898794046299167,-0.438371146789078,5.35465549852755E-17));
#346=DIRECTION('',(0.,0.,1.));
#347=DIRECTION('',(0.896802147508752,-0.437399632835868,-0.0665392321772611));
#348=DIRECTION('center_axis',(0.,-1.,0.));
#349=DIRECTION('ref_axis',(-0.994252501465537,0.,-0.107060559168737));
#350=DIRECTION('center_axis',(0.309323639110647,0.950956826721038,0.));
#351=DIRECTION('ref_axis',(-0.950956826721038,0.309323639110647,-1.05577416445017E-16));
#352=DIRECTION('',(0.,1.,0.));
#353=DIRECTION('center_axis',(0.309323639110647,-0.950956826721038,0.));
#354=DIRECTION('ref_axis',(-0.950956826721038,-0.309323639110647,-1.05577416445017E-16));
#355=DIRECTION('',(0.,-1.,0.));
#356=DIRECTION('center_axis',(-0.309323639110647,0.950956826721038,0.));
#357=DIRECTION('ref_axis',(-0.950956826721038,-0.309323639110647,0.));
#358=DIRECTION('',(-0.931178379888936,-0.302890180747288,-0.202890027439232));
#359=DIRECTION('center_axis',(0.309323639110647,-0.950956826721038,0.));
#360=DIRECTION('ref_axis',(-0.950956826721038,-0.309323639110647,1.35139093049622E-16));
#361=DIRECTION('',(-0.948598538736103,-0.308556544116349,0.0703823229987929));
#362=DIRECTION('',(0.,0.,1.));
#363=DIRECTION('',(0.950956826721038,0.309323639110647,0.));
#364=DIRECTION('center_axis',(-0.212890457523318,0.,0.977076073341023));
#365=DIRECTION('ref_axis',(0.977076073341023,0.,0.212890457523318));
#366=DIRECTION('',(0.931178379888936,-0.302890180747288,0.202890027439232));
#367=DIRECTION('',(0.,1.,0.));
#368=DIRECTION('center_axis',(0.0739927237822856,0.,0.997258781273586));
#369=DIRECTION('ref_axis',(0.997258781273586,0.,-0.0739927237822856));
#370=DIRECTION('',(0.,1.,0.));
#371=DIRECTION('',(0.948598538736103,-0.308556544116349,-0.0703823229987929));
#372=DIRECTION('center_axis',(0.0739927237822856,0.,0.997258781273586));
#373=DIRECTION('ref_axis',(0.997258781273586,1.51166929641574E-15,-0.0739927237822856));
#374=DIRECTION('center_axis',(0.0739927237822856,0.,0.997258781273586));
#375=DIRECTION('ref_axis',(-0.997258781273586,-3.04695842564108E-15,0.0739927237822856));
#376=DIRECTION('',(-1.56812446185978E-15,1.,1.16348737500667E-16));
#377=DIRECTION('center_axis',(0.0739927237822856,0.,0.997258781273586));
#378=DIRECTION('ref_axis',(0.997258781273586,0.,-0.0739927237822856));
#379=DIRECTION('',(-0.896802147508752,-0.437399632835867,0.0665392321772611));
#380=DIRECTION('center_axis',(0.0739927237822856,0.,0.997258781273586));
#381=DIRECTION('ref_axis',(-0.997258781273586,0.,0.0739927237822856));
#382=DIRECTION('center_axis',(0.,1.,0.));
#383=DIRECTION('ref_axis',(-0.212890457523318,0.,0.977076073341023));
#384=DIRECTION('center_axis',(0.309323639110647,0.950956826721038,0.));
#385=DIRECTION('ref_axis',(-0.950956826721038,0.309323639110647,1.35139093049622E-16));
#386=DIRECTION('center_axis',(0.,0.,1.));
#387=DIRECTION('ref_axis',(0.,1.,0.));
#388=DIRECTION('',(0.,0.,1.));
#389=DIRECTION('center_axis',(0.,0.,1.));
#390=DIRECTION('ref_axis',(0.,1.,0.));
#391=DIRECTION('center_axis',(-0.438371146789078,0.898794046299167,0.));
#392=DIRECTION('ref_axis',(-0.898794046299167,-0.438371146789078,0.));
#393=DIRECTION('',(0.,0.,1.));
#394=DIRECTION('',(0.898794046299167,0.438371146789078,0.));
#395=DIRECTION('center_axis',(0.,0.,1.));
#396=DIRECTION('ref_axis',(1.,0.,0.));
#397=DIRECTION('',(0.,0.,1.));
#398=DIRECTION('center_axis',(0.,0.,1.));
#399=DIRECTION('ref_axis',(1.,0.,0.));
#400=DIRECTION('center_axis',(1.,1.56812446185978E-15,0.));
#401=DIRECTION('ref_axis',(-1.56812446185978E-15,1.,0.));
#402=DIRECTION('',(0.,0.,1.));
#403=DIRECTION('',(1.56812446185978E-15,-1.,0.));
#404=DIRECTION('center_axis',(0.,0.,1.));
#405=DIRECTION('ref_axis',(1.51582450292913E-15,-1.,0.));
#406=DIRECTION('',(0.,0.,1.));
#407=DIRECTION('center_axis',(-8.75811540203011E-47,-1.22464679914735E-16,
-1.));
#408=DIRECTION('ref_axis',(1.51582450292913E-15,-1.,1.22464679914735E-16));
#409=DIRECTION('center_axis',(-0.309323639110647,-0.950956826721038,0.));
#410=DIRECTION('ref_axis',(0.950956826721038,-0.309323639110647,3.77333548811084E-17));
#411=DIRECTION('',(0.950956826721038,-0.309323639110647,3.77333548811084E-17));
#412=DIRECTION('center_axis',(0.,0.,1.));
#413=DIRECTION('ref_axis',(1.,0.,0.));
#414=DIRECTION('center_axis',(-5.95760009096366E-17,-1.39868736281179E-29,
1.));
#415=DIRECTION('ref_axis',(-0.438371146789079,-0.898794046299166,-2.61163998398771E-17));
#416=DIRECTION('center_axis',(0.,0.,1.));
#417=DIRECTION('ref_axis',(-0.438371146789079,-0.898794046299166,0.));
#418=DIRECTION('',(0.,0.,1.));
#419=DIRECTION('',(1.,0.,0.));
#420=CARTESIAN_POINT('',(0.,0.,0.));
#421=CARTESIAN_POINT('',(0.,0.,0.));
#422=CARTESIAN_POINT('Origin',(25.502003239545,-15.1116549751946,-0.0212890457523321));
#423=CARTESIAN_POINT('',(26.7951643806708,-8.7415894917728,-0.0212890457523318));
#424=CARTESIAN_POINT('',(28.351415693674,-9.26949367425004,-0.0212890457523317));
#425=CARTESIAN_POINT('Origin',(25.502003239545,-15.1116549751946,-0.0212890457523305));
#426=CARTESIAN_POINT('',(28.351415693674,-9.26949367425004,1.46772903395445));
#427=CARTESIAN_POINT('',(28.351415693674,-9.26949367425004,-0.0212890457523321));
#428=CARTESIAN_POINT('',(26.7951643806708,-8.7415894917728,1.58319682997807));
#429=CARTESIAN_POINT('Origin',(25.502003239545,-15.1116549751946,1.67914435826066));
#430=CARTESIAN_POINT('',(26.7951643806708,-8.7415894917728,-0.0212890457523321));
#431=CARTESIAN_POINT('Origin',(27.3920079842775,-8.80155926865606,-0.0212890457523318));
#432=CARTESIAN_POINT('',(46.8635390470827,-18.2984595172586,-0.0212890457523306));
#433=CARTESIAN_POINT('',(27.3920079842775,-8.80155926865606,-0.0212890457523318));
#434=CARTESIAN_POINT('',(46.8635390470827,-18.2984595172586,0.09420146454758));
#435=CARTESIAN_POINT('',(46.8635390470827,-18.2984595172586,-0.0212890457523306));
#436=CARTESIAN_POINT('',(20.0492319156307,-5.22024808943547,2.08371878768118));
#437=CARTESIAN_POINT('Origin',(0.0880288597994218,2.25909918943192E-14,
-0.00128904575233065));
#438=CARTESIAN_POINT('',(0.0880288597994218,-0.0749415800701676,-0.0212890457523328));
#439=CARTESIAN_POINT('',(0.0837710506489556,-0.0735566160170654,0.018252475714489));
#440=CARTESIAN_POINT('Origin',(0.0880288597994218,-0.0749415800701676,-0.00128904575233065));
#441=CARTESIAN_POINT('',(0.0837710506489543,0.0735566160170646,0.0182524757144895));
#442=CARTESIAN_POINT('',(0.0837710506489556,2.25909918943192E-14,0.018252475714489));
#443=CARTESIAN_POINT('',(0.0880288597994218,0.074941580070167,-0.0212890457523305));
#444=CARTESIAN_POINT('Origin',(0.0880288597994218,0.0749415800701672,-0.00128904575233065));
#445=CARTESIAN_POINT('',(0.0880288597994218,2.25909918943192E-14,-0.0212890457523305));
#446=CARTESIAN_POINT('Origin',(26.4640370669298,8.65442974881667,-0.0212890457523305));
#447=CARTESIAN_POINT('',(11.0912497184769,3.65402763561698,2.41661963842585));
#448=CARTESIAN_POINT('',(12.6344175961712,4.15598344504415,2.75285314621635));
#449=CARTESIAN_POINT('',(13.3863151689218,4.40055784306767,2.57808130188635));
#450=CARTESIAN_POINT('Origin',(12.7943733786635,4.20801325685789,-5.39998894830234));
#451=CARTESIAN_POINT('',(26.4640370669298,8.65442974881667,1.60776518908654));
#452=CARTESIAN_POINT('',(19.3355441992521,6.33570055602315,2.13667164109939));
#453=CARTESIAN_POINT('',(26.4640370669298,8.65442974881667,-0.0212890457523305));
#454=CARTESIAN_POINT('',(26.4640370669298,8.65442974881667,-0.0212890457523305));
#455=CARTESIAN_POINT('',(-0.142364806128886,-2.92751300007995E-16,-0.0212890457523305));
#456=CARTESIAN_POINT('Origin',(-0.0977076073341027,0.,-0.0212890457523318));
#457=CARTESIAN_POINT('',(11.0912497184769,-3.65402763561698,2.41661963842585));
#458=CARTESIAN_POINT('',(-0.12116554482803,-0.0068956155187917,-0.026400184159968));
#459=CARTESIAN_POINT('',(11.0912497184769,0.,2.41661963842585));
#460=CARTESIAN_POINT('Origin',(13.3863151689218,0.,2.57808130188635));
#461=CARTESIAN_POINT('',(13.3863151689218,-4.40055784306767,2.57808130188635));
#462=CARTESIAN_POINT('',(13.3863151689218,0.,2.57808130188635));
#463=CARTESIAN_POINT('',(26.4640370669298,-8.65442974881667,1.60776518908655));
#464=CARTESIAN_POINT('',(6.09824294860685,-2.02992128213961,3.11882792134898));
#465=CARTESIAN_POINT('Origin',(27.3920079842775,-5.8015592686051,1.53891335538535));
#466=CARTESIAN_POINT('',(48.3019101938711,-17.3996654709598,-0.0125200815137213));
#467=CARTESIAN_POINT('Origin',(47.3019101938716,-17.3996654709598,0.0616760300389464));
#468=CARTESIAN_POINT('',(48.3019101938724,17.399665470959,-0.0125200815138159));
#469=CARTESIAN_POINT('',(48.3019101938724,-8.69983273547989,-0.0125200815138192));
#470=CARTESIAN_POINT('',(46.8635390470827,18.2984595172586,0.0942014645475801));
#471=CARTESIAN_POINT('Origin',(47.3019101938719,17.399665470959,0.0616760300389182));
#472=CARTESIAN_POINT('',(27.3920079842775,8.80155926865606,1.53891335538535));
#473=CARTESIAN_POINT('',(29.741892642875,9.94767459602499,1.36456105112008));
#474=CARTESIAN_POINT('Origin',(27.3920079842775,5.8015592686051,1.53891335538535));
#475=CARTESIAN_POINT('Origin',(12.7943733786635,0.,-5.39998894830234));
#476=CARTESIAN_POINT('Origin',(12.7943733786635,-4.20801325685789,-5.39998894830234));
#477=CARTESIAN_POINT('Origin',(27.3920079842775,5.8015592686051,-0.0212890457523305));
#478=CARTESIAN_POINT('',(27.3920079842775,8.80155926865606,-0.0212890457523305));
#479=CARTESIAN_POINT('',(27.3920079842775,8.80155926865606,-0.0212890457523305));
#480=CARTESIAN_POINT('Origin',(27.3920079842775,5.8015592686051,-0.0212890457523305));
#481=CARTESIAN_POINT('Origin',(46.8635390470827,18.2984595172586,-0.0212890457523305));
#482=CARTESIAN_POINT('',(46.8635390470827,18.2984595172586,-0.0212890457523305));
#483=CARTESIAN_POINT('',(46.8635390470827,18.2984595172586,-0.0212890457523305));
#484=CARTESIAN_POINT('',(27.3920079842775,8.80155926865606,-0.0212890457523305));
#485=CARTESIAN_POINT('Origin',(47.3019101938719,17.399665470959,-0.0212890457523305));
#486=CARTESIAN_POINT('',(48.3019101938724,17.399665470959,-0.0212890457523305));
#487=CARTESIAN_POINT('',(48.3019101938724,17.399665470959,-0.0212890457523305));
#488=CARTESIAN_POINT('Origin',(47.3019101938719,17.399665470959,-0.0212890457523305));
#489=CARTESIAN_POINT('Origin',(48.3019101938724,-17.3996654709598,-0.0212890457523305));
#490=CARTESIAN_POINT('',(48.3019101938711,-17.3996654709598,-0.0212890457523305));
#491=CARTESIAN_POINT('',(48.3019101938711,-17.3996654709598,-0.0212890457523305));
#492=CARTESIAN_POINT('',(48.3019101938724,17.399665470959,-0.0212890457523305));
#493=CARTESIAN_POINT('Origin',(27.3920079842775,-5.8015592686051,-0.0212890457523321));
#494=CARTESIAN_POINT('',(26.4640370669298,-8.65442974881667,-0.0212890457523318));
#495=CARTESIAN_POINT('',(26.4640370669298,-8.65442974881667,-0.0212890457523318));
#496=CARTESIAN_POINT('Origin',(27.3920079842775,-5.8015592686051,-0.0212890457523321));
#497=CARTESIAN_POINT('Origin',(-0.142364806128885,-5.66344305897124E-16,
-0.0212890457523329));
#498=CARTESIAN_POINT('',(-0.142364806128885,-5.66344305897124E-16,-0.0212890457523329));
#499=CARTESIAN_POINT('Origin',(24.0797726938718,4.51819837886384E-14,-0.0212890457523305));
#500=CARTESIAN_POINT('Origin',(47.3019101938716,-17.3996654709598,-0.0212890457523306));
#501=CARTESIAN_POINT('Origin',(47.3019101938716,-17.3996654709598,-0.0212890457523306));
#502=CARTESIAN_POINT('',(0.,0.,0.));
#503=UNCERTAINTY_MEASURE_WITH_UNIT(LENGTH_MEASURE(1.E-5),#509,
'DISTANCE_ACCURACY_VALUE',
'Maximum model space distance between geometric entities at asserted c
onnectivities');
#504=UNCERTAINTY_MEASURE_WITH_UNIT(LENGTH_MEASURE(1.E-5),#509,
'DISTANCE_ACCURACY_VALUE',
'Maximum model space distance between geometric entities at asserted c
onnectivities');
#505=UNCERTAINTY_MEASURE_WITH_UNIT(LENGTH_MEASURE(1.E-5),#509,
'DISTANCE_ACCURACY_VALUE',
'Maximum model space distance between geometric entities at asserted c
onnectivities');
#506=(
GEOMETRIC_REPRESENTATION_CONTEXT(3)
GLOBAL_UNCERTAINTY_ASSIGNED_CONTEXT((#503))
GLOBAL_UNIT_ASSIGNED_CONTEXT((#509,#510,#511))
REPRESENTATION_CONTEXT('','3D')
);
#507=(
GEOMETRIC_REPRESENTATION_CONTEXT(3)
GLOBAL_UNCERTAINTY_ASSIGNED_CONTEXT((#504))
GLOBAL_UNIT_ASSIGNED_CONTEXT((#509,#510,#511))
REPRESENTATION_CONTEXT('','3D')
);
#508=(
GEOMETRIC_REPRESENTATION_CONTEXT(3)
GLOBAL_UNCERTAINTY_ASSIGNED_CONTEXT((#505))
GLOBAL_UNIT_ASSIGNED_CONTEXT((#509,#510,#511))
REPRESENTATION_CONTEXT('','3D')
);
#509=(
LENGTH_UNIT()
NAMED_UNIT(*)
SI_UNIT($,.METRE.)
);
#510=(
NAMED_UNIT(*)
PLANE_ANGLE_UNIT()
SI_UNIT($,.RADIAN.)
);
#511=(
NAMED_UNIT(*)
SI_UNIT($,.STERADIAN.)
SOLID_ANGLE_UNIT()
);
#512=SHAPE_DEFINITION_REPRESENTATION(#514,#517);
#513=SHAPE_DEFINITION_REPRESENTATION(#515,#518);
#514=PRODUCT_DEFINITION_SHAPE('',$,#520);
#515=PRODUCT_DEFINITION_SHAPE('',$,#521);
#516=PRODUCT_DEFINITION_SHAPE($,$,#16);
#517=SHAPE_REPRESENTATION('',(#299,#330),#506);
#518=SHAPE_REPRESENTATION('',(#300),#507);
#519=PRODUCT_DEFINITION_CONTEXT('part definition',#527,'design');
#520=PRODUCT_DEFINITION('2026-07-17-17-18-51-878','BWB Spaceplane V1',#522,
#519);
#521=PRODUCT_DEFINITION('2026-07-26-19-51-34-331','Spaceplane',#523,#519);
#522=PRODUCT_DEFINITION_FORMATION('',$,#529);
#523=PRODUCT_DEFINITION_FORMATION('',$,#530);
#524=PRODUCT_RELATED_PRODUCT_CATEGORY('BWB Spaceplane V1',
'BWB Spaceplane V1',(#529));
#525=PRODUCT_RELATED_PRODUCT_CATEGORY('Spaceplane','Spaceplane',(#530));
#526=APPLICATION_PROTOCOL_DEFINITION('international standard',
'automotive_design',2009,#527);
#527=APPLICATION_CONTEXT(
'Core Data for Automotive Mechanical Design Process');
#528=PRODUCT_CONTEXT('part definition',#527,'mechanical');
#529=PRODUCT('2026-07-17-17-18-51-878','BWB Spaceplane V1',$,(#528));
#530=PRODUCT('2026-07-26-19-51-34-331','Spaceplane',$,(#528));
#531=PRESENTATION_STYLE_ASSIGNMENT((#533));
#532=PRESENTATION_STYLE_ASSIGNMENT((#534));
#533=SURFACE_STYLE_USAGE(.BOTH.,#535);
#534=SURFACE_STYLE_USAGE(.BOTH.,#536);
#535=SURFACE_SIDE_STYLE('',(#537));
#536=SURFACE_SIDE_STYLE('',(#538));
#537=SURFACE_STYLE_FILL_AREA(#539);
#538=SURFACE_STYLE_FILL_AREA(#540);
#539=FILL_AREA_STYLE('Paint - Metallic (Blue)',(#541));
#540=FILL_AREA_STYLE('Paint - Metal Flake (Blue)',(#542));
#541=FILL_AREA_STYLE_COLOUR('Paint - Metallic (Blue)',#543);
#542=FILL_AREA_STYLE_COLOUR('Paint - Metal Flake (Blue)',#544);
#543=COLOUR_RGB('Paint - Metallic (Blue)',0.188235294117647,0.231372549019608,
0.588235294117647);
#544=COLOUR_RGB('Paint - Metal Flake (Blue)',0.188235294117647,0.231372549019608,
0.588235294117647);
ENDSEC;
END-ISO-10303-21;
